<!-- Generator: Adobe Illustrator 22.1.0, SVG Export Plug-In  -->
<svg version="1.1"
	 xmlns="http://www.w3.org/2000/svg" xmlns:xlink="http://www.w3.org/1999/xlink" xmlns:a="http://ns.adobe.com/AdobeSVGViewerExtensions/3.0/"
	 x="0px" y="0px" width="64px" height="64px" viewBox="0 0 64 64" style="enable-background:new 0 0 64 64;" xml:space="preserve">
<style type="text/css">
	.st0{fill:#FFFFFF;}
	.st1{fill:#FFFFFF;stroke:#363F40;stroke-width:2;stroke-miterlimit:10;}
</style>
<defs>
</defs>
<g>
	<g>
		<g>
			<rect x="34.9" y="58" transform="matrix(0.9762 -0.2168 0.2168 0.9762 -11.853 9.9681)" class="st0" width="9.2" height="2"/>
		</g>
		<g>
			<rect x="54.9" y="38" transform="matrix(0.2428 -0.9701 0.9701 0.2428 6.8421 86.7656)" class="st0" width="8.2" height="2"/>
		</g>
		<g>
			<rect x="31" y="49" class="st0" width="2" height="8"/>
		</g>
		<g>
			<path class="st1" d="M53,44"/>
		</g>
		<g>
			<g>
				<path class="st0" d="M32,36c-2.2,0-4-1.8-4-4s1.8-4,4-4c2.2,0,4,1.8,4,4S34.2,36,32,36z M32,30c-1.1,0-2,0.9-2,2s0.9,2,2,2
					c1.1,0,2-0.9,2-2S33.1,30,32,30z"/>
			</g>
		</g>
		<g>
			<g>
				<path class="st0" d="M32,22c-2.2,0-4-1.8-4-4s1.8-4,4-4c2.2,0,4,1.8,4,4S34.2,22,32,22z M32,16c-1.1,0-2,0.9-2,2s0.9,2,2,2
					c1.1,0,2-0.9,2-2S33.1,16,32,16z"/>
			</g>
		</g>
		<g>
			<g>
				<path class="st0" d="M32,8c-2.2,0-4-1.8-4-4s1.8-4,4-4c2.2,0,4,1.8,4,4S34.2,8,32,8z M32,2c-1.1,0-2,0.9-2,2s0.9,2,2,2
					c1.1,0,2-0.9,2-2S33.1,2,32,2z"/>
			</g>
		</g>
		<g>
			<g>
				<path class="st0" d="M32,50c-2.2,0-4-1.8-4-4s1.8-4,4-4c2.2,0,4,1.8,4,4S34.2,50,32,50z M32,44c-1.1,0-2,0.9-2,2s0.9,2,2,2
					c1.1,0,2-0.9,2-2S33.1,44,32,44z"/>
			</g>
		</g>
		<g>
			<g>
				<path class="st0" d="M32,64c-2.2,0-4-1.8-4-4s1.8-4,4-4c2.2,0,4,1.8,4,4S34.2,64,32,64z M32,58c-1.1,0-2,0.9-2,2s0.9,2,2,2
					c1.1,0,2-0.9,2-2S33.1,58,32,58z"/>
			</g>
		</g>
		<g>
			<g>
				<path class="st0" d="M19,28c-2.2,0-4-1.8-4-4s1.8-4,4-4c2.2,0,4,1.8,4,4S21.2,28,19,28z M19,22c-1.1,0-2,0.9-2,2s0.9,2,2,2
					c1.1,0,2-0.9,2-2S20.1,22,19,22z"/>
			</g>
		</g>
		<g>
			<g>
				<path class="st0" d="M45,28c-2.2,0-4-1.8-4-4s1.8-4,4-4c2.2,0,4,1.8,4,4S47.2,28,45,28z M45,22c-1.1,0-2,0.9-2,2s0.9,2,2,2
					c1.1,0,2-0.9,2-2S46.1,22,45,22z"/>
			</g>
		</g>
		<g>
			<g>
				<path class="st0" d="M57,50c-2.2,0-4-1.8-4-4s1.8-4,4-4c2.2,0,4,1.8,4,4S59.2,50,57,50z M57,44c-1.1,0-2,0.9-2,2s0.9,2,2,2
					c1.1,0,2-0.9,2-2S58.1,44,57,44z"/>
			</g>
		</g>
		<g>
			<g>
				<path class="st0" d="M47,61c-2.2,0-4-1.8-4-4s1.8-4,4-4c2.2,0,4,1.8,4,4S49.2,61,47,61z M47,55c-1.1,0-2,0.9-2,2s0.9,2,2,2
					c1.1,0,2-0.9,2-2S48.1,55,47,55z"/>
			</g>
		</g>
		<g>
			<g>
				<path class="st0" d="M19,44c-2.2,0-4-1.8-4-4s1.8-4,4-4c2.2,0,4,1.8,4,4S21.2,44,19,44z M19,38c-1.1,0-2,0.9-2,2s0.9,2,2,2
					c1.1,0,2-0.9,2-2S20.1,38,19,38z"/>
			</g>
		</g>
		<g>
			<g>
				<path class="st0" d="M45,44c-2.2,0-4-1.8-4-4s1.8-4,4-4c2.2,0,4,1.8,4,4S47.2,44,45,44z M45,38c-1.1,0-2,0.9-2,2s0.9,2,2,2
					c1.1,0,2-0.9,2-2S46.1,38,45,38z"/>
			</g>
		</g>
		<g>
			<rect x="21" y="14" class="st0" width="2" height="2"/>
		</g>
		<g>
			<rect x="21" y="48" class="st0" width="2" height="2"/>
		</g>
		<g>
			<rect x="41" y="48" class="st0" width="2" height="2"/>
		</g>
		<g>
			<rect x="12" y="31" class="st0" width="2" height="2"/>
		</g>
		<g>
			<rect x="41" y="14" class="st0" width="2" height="2"/>
		</g>
		<g>
			<rect x="50" y="31" class="st0" width="2" height="2"/>
		</g>
		<g>
			<rect x="47.4" y="50.5" transform="matrix(0.6511 -0.759 0.759 0.6511 -20.9451 57.4379)" class="st0" width="9.2" height="2"/>
		</g>
		<g>
			<rect x="38.5" y="0.4" transform="matrix(0.2169 -0.9762 0.9762 0.2169 26.0503 42.4747)" class="st0" width="2" height="9.2"/>
		</g>
		<g>
			<rect x="58" y="20.9" transform="matrix(0.9701 -0.2425 0.2425 0.9701 -4.3018 15.056)" class="st0" width="2" height="8.2"/>
		</g>
		<g>
			<path class="st1" d="M53,20"/>
		</g>
		<g>
			<g>
				<path class="st0" d="M57,22c-2.2,0-4-1.8-4-4s1.8-4,4-4c2.2,0,4,1.8,4,4S59.2,22,57,22z M57,16c-1.1,0-2,0.9-2,2s0.9,2,2,2
					c1.1,0,2-0.9,2-2S58.1,16,57,16z"/>
			</g>
		</g>
		<g>
			<g>
				<path class="st0" d="M47,11c-2.2,0-4-1.8-4-4s1.8-4,4-4c2.2,0,4,1.8,4,4S49.2,11,47,11z M47,5c-1.1,0-2,0.9-2,2s0.9,2,2,2
					c1.1,0,2-0.9,2-2S48.1,5,47,5z"/>
			</g>
		</g>
		<g>
			<g>
				<path class="st0" d="M60,36c-2.2,0-4-1.8-4-4s1.8-4,4-4c2.2,0,4,1.8,4,4S62.2,36,60,36z M60,30c-1.1,0-2,0.9-2,2s0.9,2,2,2
					c1.1,0,2-0.9,2-2S61.1,30,60,30z"/>
			</g>
		</g>
		<g>
			<rect x="51" y="7.9" transform="matrix(0.7593 -0.6508 0.6508 0.7593 4.3838 36.8504)" class="st0" width="2" height="9.2"/>
		</g>
		<g>
			
				<rect x="23.5" y="54.4" transform="matrix(0.2169 -0.9762 0.9762 0.2169 -38.4098 70.1177)" class="st0" width="2" height="9.2"/>
		</g>
		<g>
			<rect x="4" y="34.9" transform="matrix(0.9701 -0.2425 0.2425 0.9701 -9.3096 2.3771)" class="st0" width="2" height="8.2"/>
		</g>
		<g>
			<g>
				<path class="st0" d="M7,50c-2.2,0-4-1.8-4-4s1.8-4,4-4c2.2,0,4,1.8,4,4S9.2,50,7,50z M7,44c-1.1,0-2,0.9-2,2s0.9,2,2,2
					c1.1,0,2-0.9,2-2S8.1,44,7,44z"/>
			</g>
		</g>
		<g>
			<g>
				<path class="st0" d="M17,61c-2.2,0-4-1.8-4-4s1.8-4,4-4c2.2,0,4,1.8,4,4S19.2,61,17,61z M17,55c-1.1,0-2,0.9-2,2s0.9,2,2,2
					c1.1,0,2-0.9,2-2S18.1,55,17,55z"/>
			</g>
		</g>
		<g>
			<rect x="11" y="46.9" transform="matrix(0.7593 -0.6508 0.6508 0.7593 -30.6268 20.2078)" class="st0" width="2" height="9.2"/>
		</g>
		<g>
			<rect x="19.9" y="4" transform="matrix(0.9762 -0.2168 0.2168 0.9762 -0.5013 5.4311)" class="st0" width="9.2" height="2"/>
		</g>
		<g>
			<rect x="0.9" y="24" transform="matrix(0.2428 -0.9701 0.9701 0.2428 -20.4659 23.7805)" class="st0" width="8.2" height="2"/>
		</g>
		<g>
			<g>
				<path class="st0" d="M7,22c-2.2,0-4-1.8-4-4s1.8-4,4-4c2.2,0,4,1.8,4,4S9.2,22,7,22z M7,16c-1.1,0-2,0.9-2,2s0.9,2,2,2
					c1.1,0,2-0.9,2-2S8.1,16,7,16z"/>
			</g>
		</g>
		<g>
			<g>
				<path class="st0" d="M17,11c-2.2,0-4-1.8-4-4s1.8-4,4-4c2.2,0,4,1.8,4,4S19.2,11,17,11z M17,5c-1.1,0-2,0.9-2,2s0.9,2,2,2
					c1.1,0,2-0.9,2-2S18.1,5,17,5z"/>
			</g>
		</g>
		<g>
			<g>
				<path class="st0" d="M4,36c-2.2,0-4-1.8-4-4s1.8-4,4-4c2.2,0,4,1.8,4,4S6.2,36,4,36z M4,30c-1.1,0-2,0.9-2,2s0.9,2,2,2
					c1.1,0,2-0.9,2-2S5.1,30,4,30z"/>
			</g>
		</g>
		<g>
			<rect x="7.4" y="11.5" transform="matrix(0.6511 -0.759 0.759 0.6511 -5.3006 13.4696)" class="st0" width="9.2" height="2"/>
		</g>
		<g>
			<rect x="24.5" y="40" transform="matrix(0.4961 -0.8682 0.8682 0.4961 -25.3542 44.3101)" class="st0" width="2" height="8.1"/>
		</g>
		<g>
			<rect x="18" y="27" class="st0" width="2" height="10"/>
		</g>
		<g>
			<rect x="24.5" y="24.2" transform="matrix(0.5812 -0.8137 0.8137 0.5812 -12.513 32.6849)" class="st0" width="2" height="8.6"/>
		</g>
		<g>
			<rect x="34.2" y="27.5" transform="matrix(0.8139 -0.581 0.581 0.8139 -9.3938 27.6735)" class="st0" width="8.6" height="2"/>
		</g>
		<g>
			<rect x="31" y="7" class="st0" width="2" height="8"/>
		</g>
		<g>
			<rect x="37.5" y="16.7" transform="matrix(0.3939 -0.9191 0.9191 0.3939 4.4916 47.8117)" class="st0" width="2" height="7.6"/>
		</g>
		<g>
			<rect x="34.5" y="43" transform="matrix(0.8682 -0.4961 0.4961 0.8682 -16.7572 24.898)" class="st0" width="8.1" height="2"/>
		</g>
		<g>
			<rect x="50" y="40.1" transform="matrix(0.4472 -0.8944 0.8944 0.4472 -10.7155 69.662)" class="st0" width="2" height="6.7"/>
		</g>
		<g>
			<rect x="9.6" y="42.5" transform="matrix(0.8944 -0.4473 0.4473 0.8944 -18.0828 10.4076)" class="st0" width="6.7" height="2"/>
		</g>
		<g>
			<rect x="44" y="27" class="st0" width="2" height="10"/>
		</g>
		<g>
			<rect x="12" y="18.1" transform="matrix(0.4472 -0.8944 0.8944 0.4472 -12.044 23.5125)" class="st0" width="2" height="6.7"/>
		</g>
	</g>
</g>
</svg>
