<!-- Generator: Adobe Illustrator 22.1.0, SVG Export Plug-In  -->
<svg version="1.1"
	 xmlns="http://www.w3.org/2000/svg" xmlns:xlink="http://www.w3.org/1999/xlink" xmlns:a="http://ns.adobe.com/AdobeSVGViewerExtensions/3.0/"
	 x="0px" y="0px" width="70px" height="70px" viewBox="0 0 70 70" style="enable-background:new 0 0 70 70;" xml:space="preserve">
<style type="text/css">
	.st0{fill:#fff;}
</style>
<defs>
</defs>
<g>
	<g>
		<g>
			<path class="st0" d="M35,49.2c-0.2,0-0.4,0-0.5-0.1l-12-6.6c-0.4-0.2-0.6-0.6-0.6-1V28.4c0-0.4,0.2-0.8,0.6-1l12-6.6
				c0.3-0.2,0.7-0.2,1,0l12,6.6c0.4,0.2,0.6,0.6,0.6,1v13.1c0,0.4-0.2,0.8-0.6,1l-12,6.6C35.4,49.2,35.2,49.2,35,49.2z M24.1,40.9
				l10.9,6l10.9-6V29.1l-10.9-6l-10.9,6V40.9z"/>
		</g>
		<g>
			<path class="st0" d="M35,36.1c-0.2,0-0.4,0-0.5-0.1l-12-6.6l1-1.9L35,33.8l11.5-6.3l1,1.9l-12,6.6C35.4,36,35.2,36.1,35,36.1z"/>
		</g>
		<g>
			<rect x="33.9" y="35" class="st0" width="2.2" height="13.1"/>
		</g>
	</g>
	<g>
		<g>
			<rect x="13.1" y="33.9" class="st0" width="2.2" height="2.2"/>
		</g>
		<g>
			<rect x="18.6" y="19.7" class="st0" width="2.2" height="2.2"/>
		</g>
		<g>
			<rect x="14.2" y="26.2" class="st0" width="2.2" height="2.2"/>
		</g>
		<g>
			<rect x="14.2" y="41.6" class="st0" width="2.2" height="2.2"/>
		</g>
		<g>
			<rect x="53.6" y="26.2" class="st0" width="2.2" height="2.2"/>
		</g>
		<g>
			<rect x="53.6" y="41.6" class="st0" width="2.2" height="2.2"/>
		</g>
		<g>
			<rect x="25.2" y="15.3" class="st0" width="2.2" height="2.2"/>
		</g>
		<g>
			<rect x="42.7" y="15.3" class="st0" width="2.2" height="2.2"/>
		</g>
		<g>
			<rect x="25.2" y="52.5" class="st0" width="2.2" height="2.2"/>
		</g>
		<g>
			<rect x="42.7" y="52.5" class="st0" width="2.2" height="2.2"/>
		</g>
		<g>
			<rect x="18.6" y="48.1" class="st0" width="2.2" height="2.2"/>
		</g>
		<g>
			<rect x="49.2" y="19.7" class="st0" width="2.2" height="2.2"/>
		</g>
		<g>
			<rect x="49.2" y="48.1" class="st0" width="2.2" height="2.2"/>
		</g>
		<g>
			<rect x="54.7" y="33.9" class="st0" width="2.2" height="2.2"/>
		</g>
		<g>
			<rect x="33.9" y="13.1" class="st0" width="2.2" height="2.2"/>
		</g>
		<g>
			<rect x="33.9" y="54.7" class="st0" width="2.2" height="2.2"/>
		</g>
	</g>
	<g>
		<g>
			<path class="st0" d="M35,70c-1.1,0-2.2-0.1-3.3-0.2l-0.8-0.1L29.6,64c-0.2,0-0.5-0.1-0.7-0.1l-3.5,4.8l-0.8-0.2
				c-2.1-0.6-4.1-1.5-6-2.5l-0.7-0.4l0.9-5.8c-0.2-0.1-0.4-0.3-0.6-0.4l-5,3.1L12.7,62C11,60.6,9.4,59,8,57.3l-0.5-0.6l3.1-5
				c-0.1-0.2-0.3-0.4-0.4-0.6l-5.8,0.9l-0.4-0.7c-1-1.9-1.9-4-2.5-6l-0.2-0.8l4.8-3.5c0-0.2-0.1-0.5-0.1-0.7l-5.7-1.4l-0.1-0.8
				C0.1,37.2,0,36.1,0,35c0-1.1,0.1-2.2,0.2-3.3l0.1-0.8L6,29.6c0-0.2,0.1-0.5,0.1-0.7l-4.8-3.5l0.2-0.8c0.6-2.1,1.5-4.1,2.5-6
				l0.4-0.7l5.8,0.9c0.1-0.2,0.3-0.4,0.4-0.6l-3.1-5L8,12.7C9.4,11,11,9.4,12.7,8l0.6-0.5l5,3.1c0.2-0.1,0.4-0.3,0.6-0.4l-0.9-5.8
				l0.7-0.4c1.9-1,4-1.9,6-2.5l0.8-0.2l3.5,4.8c0.2,0,0.5-0.1,0.7-0.1l1.4-5.7l0.8-0.1c2.2-0.2,4.3-0.2,6.6,0l0.8,0.1L40.4,6
				c0.2,0,0.5,0.1,0.7,0.1l3.5-4.8l0.8,0.2c2.1,0.6,4.1,1.5,6.1,2.5l0.7,0.4l-0.9,5.8c0.2,0.1,0.4,0.3,0.6,0.4l5-3.1L57.3,8
				c1.7,1.4,3.2,3,4.6,4.6l0.5,0.6l-3.1,5c0.1,0.2,0.3,0.4,0.4,0.6l5.8-0.9l0.4,0.7c1,1.9,1.9,4,2.5,6l0.2,0.8l-4.8,3.5
				c0,0.2,0.1,0.5,0.1,0.7l5.7,1.4l0.1,0.8c0.1,1.1,0.2,2.2,0.2,3.3c0,1.1-0.1,2.2-0.2,3.3l-0.1,0.8L64,40.4c0,0.2-0.1,0.5-0.1,0.7
				l4.8,3.5l-0.2,0.8c-0.6,2.1-1.5,4.1-2.5,6l-0.4,0.7l-5.8-0.9c-0.1,0.2-0.3,0.4-0.4,0.6l3.1,5L62,57.3c-1.4,1.7-3,3.2-4.6,4.6
				l-0.6,0.5l-5-3.1c-0.2,0.1-0.4,0.3-0.6,0.4l0.9,5.8l-0.7,0.4c-1.9,1-4,1.9-6.1,2.5l-0.8,0.2l-3.5-4.8c-0.2,0-0.5,0.1-0.7,0.1
				l-1.4,5.7l-0.8,0.1C37.2,69.9,36.1,70,35,70z M32.7,67.7c1.6,0.1,3,0.1,4.6,0l1.3-5.6l0.7-0.1c0.6-0.1,1.3-0.2,2-0.4l0.7-0.2
				l3.4,4.7c1.4-0.5,2.9-1.1,4.2-1.8l-0.9-5.7l0.6-0.4c0.5-0.3,1.1-0.7,1.7-1.1l0.6-0.4l4.9,3c1.2-1,2.2-2.1,3.2-3.2l-3-4.9l0.4-0.6
				c0.4-0.6,0.8-1.1,1.1-1.7l0.4-0.6l5.7,0.9c0.7-1.4,1.3-2.8,1.8-4.2L61.4,42l0.2-0.7c0.2-0.7,0.3-1.3,0.4-2l0.1-0.7l5.6-1.3
				c0.1-0.8,0.1-1.6,0.1-2.3c0-0.7,0-1.5-0.1-2.3l-5.6-1.3L62,30.7c-0.1-0.6-0.2-1.3-0.4-2L61.4,28l4.7-3.4
				c-0.5-1.4-1.1-2.9-1.8-4.2l-5.7,0.9l-0.4-0.6c-0.3-0.5-0.7-1.1-1.1-1.7l-0.4-0.6l3-4.9c-1-1.2-2.1-2.2-3.2-3.2l-4.9,3L51,12.8
				c-0.6-0.4-1.1-0.8-1.7-1.1l-0.6-0.4l0.9-5.7c-1.4-0.7-2.8-1.3-4.2-1.8L42,8.6l-0.7-0.2c-0.7-0.2-1.3-0.3-2-0.4l-0.7-0.1l-1.3-5.6
				c-1.6-0.1-3-0.1-4.6,0l-1.3,5.6L30.7,8c-0.6,0.1-1.3,0.2-2,0.4L28,8.6l-3.4-4.7c-1.4,0.5-2.9,1.1-4.2,1.8l0.9,5.7l-0.6,0.4
				c-0.5,0.3-1.1,0.7-1.7,1.1l-0.6,0.4l-4.9-3c-1.2,1-2.2,2.1-3.2,3.2l3,4.9L12.8,19c-0.4,0.6-0.8,1.1-1.1,1.7l-0.4,0.6l-5.7-0.9
				c-0.7,1.4-1.3,2.8-1.8,4.2L8.6,28l-0.2,0.7c-0.2,0.7-0.3,1.3-0.4,2l-0.1,0.7l-5.6,1.3c-0.1,0.8-0.1,1.6-0.1,2.3
				c0,0.7,0,1.5,0.1,2.3l5.6,1.3L8,39.3c0.1,0.6,0.2,1.3,0.4,2L8.6,42l-4.7,3.4c0.5,1.4,1.1,2.9,1.8,4.2l5.7-0.9l0.4,0.6
				c0.3,0.5,0.7,1.1,1.1,1.7l0.4,0.6l-3,4.9c1,1.2,2.1,2.2,3.2,3.2l4.9-3l0.6,0.4c0.6,0.4,1.1,0.8,1.7,1.1l0.6,0.4l-0.9,5.7
				c1.4,0.7,2.8,1.3,4.2,1.8l3.4-4.7l0.7,0.2c0.7,0.2,1.3,0.3,2,0.4l0.7,0.1L32.7,67.7z"/>
		</g>
	</g>
</g>
</svg>
