<?xml version="1.0" encoding="UTF-8"?>
<svg width="46px" height="46px" viewBox="0 0 46 46" version="1.1" xmlns="http://www.w3.org/2000/svg" xmlns:xlink="http://www.w3.org/1999/xlink">
    <!-- Generator: Sketch 49.1 (51147) - http://www.bohemiancoding.com/sketch -->
    <title>Slice 1</title>
    <desc>Created with Sketch.</desc>
    <defs></defs>
    <g id="Page-1" stroke="none" stroke-width="1" fill="none" fill-rule="evenodd">
        <g>
            <path d="M46,23 C46,35.702 35.703,46 23,46 C10.297,46 0,35.702 0,23 C0,10.298 10.297,0 23,0 C35.703,0 46,10.298 46,23" id="Fill-1" fill="#CC1719"></path>
            <g id="Group-11" transform="translate(12.000000, 7.000000)" fill="#FFFFFF">
                <path d="M15.2813,6.4336 L18.0513,9.0886 L15.2813,9.0886 L15.2813,6.4336 Z M1.8153,3.5796 C1.5943,3.5796 1.3743,3.6686 1.2183,3.8256 C1.0613,3.9816 0.9723,4.2026 0.9723,4.4226 L0.9723,29.1566 C0.9723,29.3766 1.0613,29.5956 1.2183,29.7516 C1.3743,29.9086 1.5943,29.9996 1.8153,29.9996 L20.1843,29.9996 C20.4053,29.9996 20.6263,29.9086 20.7823,29.7516 C20.9383,29.5956 21.0283,29.3766 21.0283,29.1566 L21.0283,9.9656 C21.0043,9.7186 20.9163,9.4696 20.7693,9.3246 L15.0223,3.8116 C14.8703,3.6676 14.6643,3.5836 14.4553,3.5796 C13.2393,3.5796 12.0203,3.5796 10.8023,3.5796 C10.8283,4.1416 10.8533,4.7046 10.8743,5.2666 L13.5943,5.2666 L13.5943,9.9336 C13.5943,10.1546 13.6853,10.3726 13.8413,10.5296 C13.9973,10.6856 14.2163,10.7776 14.4373,10.7776 L19.3413,10.7776 L19.3413,28.3126 L2.6593,28.3126 L2.6593,5.2666 L4.1143,5.2666 L4.1143,3.5796 L1.8153,3.5796 Z" id="Fill-3"></path>
                <path d="M5.2417,20.7168 L16.7587,20.7168 C17.0727,20.7168 17.3267,20.9718 17.3267,21.2858 L17.3267,21.8358 C17.3267,22.1498 17.0727,22.4038 16.7587,22.4038 L5.2417,22.4038 C4.9277,22.4038 4.6727,22.1498 4.6727,21.8358 L4.6727,21.2858 C4.6727,20.9718 4.9277,20.7168 5.2417,20.7168" id="Fill-5"></path>
                <path d="M5.2417,23.8896 L16.7587,23.8896 C17.0727,23.8896 17.3267,24.1446 17.3267,24.4586 L17.3267,25.0086 C17.3267,25.3226 17.0727,25.5766 16.7587,25.5766 L5.2417,25.5766 C4.9277,25.5766 4.6727,25.3226 4.6727,25.0086 L4.6727,24.4586 C4.6727,24.1446 4.9277,23.8896 5.2417,23.8896" id="Fill-7"></path>
                <path d="M6.8198,5.96202775e-16 C6.1088,-0.011 5.4078,0.234 4.8418,0.64 C4.1418,1.14 3.6218,1.91 3.6198,2.806 L3.6188,2.806 L3.6188,2.846 C3.9238,2.842 4.2288,2.838 4.5328,2.836 L4.5328,2.819 C4.5338,2.817 4.5338,2.815 4.5348,2.813 C4.5338,2.276 4.8608,1.752 5.3748,1.384 C5.8898,1.017 6.5678,0.835 7.1528,0.95 C7.1588,0.951 7.1638,0.952 7.1698,0.953 C7.6838,1.035 8.1738,1.295 8.5298,1.673 C8.5348,1.678 8.5398,1.683 8.5448,1.687 C9.0968,2.226 9.1498,3.141 9.2108,4.089 C9.2368,7.323 9.4168,10.545 9.3058,13.729 C9.2908,14.182 9.0108,14.578 8.5848,14.839 C8.1578,15.1 7.6058,15.192 7.1468,15.051 C6.3128,14.793 5.8168,13.885 5.8468,12.955 C5.9458,9.972 5.7438,7.008 5.7908,4.089 L5.7908,4.086 C5.7938,3.807 5.9878,3.579 6.3178,3.437 C6.6478,3.295 7.0648,3.3 7.3328,3.458 C7.3408,3.463 7.3478,3.466 7.3548,3.47 C7.5658,3.581 7.6958,3.76 7.7938,4.023 C7.8908,4.286 7.9338,4.622 7.9468,4.941 L8.0098,11.109 C8.0098,11.229 8.0598,11.35 8.1458,11.436 C8.2308,11.521 8.3518,11.569 8.4728,11.568 C8.5928,11.567 8.7128,11.516 8.7968,11.43 C8.8818,11.343 8.9288,11.222 8.9258,11.101 L8.8638,4.916 L8.8638,4.9 C8.8478,4.531 8.8018,4.111 8.6528,3.706 C8.5048,3.307 8.2348,2.911 7.7988,2.674 L7.7998,2.673 C7.7938,2.669 7.7868,2.668 7.7808,2.664 L7.7788,2.661 C7.2048,2.331 6.5198,2.354 5.9548,2.597 C5.3838,2.842 4.8858,3.373 4.8778,4.076 C4.8778,4.077 4.8768,4.078 4.8768,4.079 L4.8778,4.081 C4.8298,7.05 5.0298,10.006 4.9328,12.926 C4.8898,14.202 5.5758,15.526 6.8758,15.928 C7.6258,16.159 8.4258,16.009 9.0618,15.62 C9.6978,15.231 10.1928,14.57 10.2208,13.763 C10.3338,10.523 10.1508,7.288 10.1248,4.083 L10.1248,4.058 C10.0668,3.133 10.0668,1.909 9.1948,1.046 C9.1928,1.044 9.1918,1.04 9.1888,1.037 L9.1818,1.033 C8.6888,0.516 8.0358,0.168 7.3298,0.052 L7.3268,0.052 C7.3218,0.051 7.3188,0.05 7.3138,0.049 L7.3118,0.05 C7.1478,0.02 6.9838,0.003 6.8198,0.001 L6.8198,5.96202775e-16 Z" id="Fill-9"></path>
            </g>
        </g>
    </g>
</svg>