<!-- Generator: Adobe Illustrator 22.1.0, SVG Export Plug-In  -->
<svg version="1.1"
	 xmlns="http://www.w3.org/2000/svg" xmlns:xlink="http://www.w3.org/1999/xlink" xmlns:a="http://ns.adobe.com/AdobeSVGViewerExtensions/3.0/"
	 x="0px" y="0px" width="64px" height="56px" viewBox="0 0 64 56" style="enable-background:new 0 0 64 56;" xml:space="preserve">
<style type="text/css">
	.st0{fill:#22adb3;}
</style>
<defs>
</defs>
<g>
	<g>
		<g>
			<polygon class="st0" points="64,38 58,38 58,36 62,36 62,2 48,2 48,36 52,36 52,38 46,38 46,0 64,0 			"/>
		</g>
		<g>
			<g>
				<polygon class="st0" points="44,56 0,56 0,36 12,36 12,38 2,38 2,54 42,54 42,38 32,38 32,36 44,36 				"/>
			</g>
			<g>
				<rect x="9" y="45" class="st0" width="2" height="2"/>
			</g>
			<g>
				<rect x="13" y="45" class="st0" width="2" height="2"/>
			</g>
			<g>
				<rect x="17" y="45" class="st0" width="2" height="2"/>
			</g>
			<g>
				<rect x="21" y="45" class="st0" width="2" height="2"/>
			</g>
			<g>
				<rect x="25" y="45" class="st0" width="2" height="2"/>
			</g>
			<g>
				<rect x="29" y="45" class="st0" width="2" height="2"/>
			</g>
			<g>
				<rect x="33" y="45" class="st0" width="2" height="2"/>
			</g>
			<g>
				<rect x="9" y="49" class="st0" width="2" height="2"/>
			</g>
			<g>
				<rect x="5" y="45" class="st0" width="2" height="2"/>
			</g>
			<g>
				<rect x="5" y="49" class="st0" width="2" height="2"/>
			</g>
			<g>
				<rect x="37" y="45" class="st0" width="2" height="2"/>
			</g>
			<g>
				<rect x="9" y="41" class="st0" width="2" height="2"/>
			</g>
			<g>
				<rect x="13" y="41" class="st0" width="2" height="2"/>
			</g>
			<g>
				<rect x="17" y="41" class="st0" width="2" height="2"/>
			</g>
			<g>
				<rect x="21" y="41" class="st0" width="2" height="2"/>
			</g>
			<g>
				<rect x="25" y="41" class="st0" width="2" height="2"/>
			</g>
			<g>
				<rect x="29" y="41" class="st0" width="2" height="2"/>
			</g>
			<g>
				<rect x="33" y="41" class="st0" width="2" height="2"/>
			</g>
			<g>
				<rect x="5" y="41" class="st0" width="2" height="2"/>
			</g>
			<g>
				<rect x="37" y="41" class="st0" width="2" height="2"/>
			</g>
			<g>
				<rect x="37" y="49" class="st0" width="2" height="2"/>
			</g>
			<g>
				<rect x="13" y="49" class="st0" width="2" height="2"/>
			</g>
			<g>
				<rect x="17" y="49" class="st0" width="10" height="2"/>
			</g>
			<g>
				<rect x="29" y="49" class="st0" width="2" height="2"/>
			</g>
			<g>
				<rect x="33" y="49" class="st0" width="2" height="2"/>
			</g>
		</g>
		<g>
			<path class="st0" d="M60,10H50V4h10V10z M52,8h6V6h-6V8z"/>
		</g>
		<g>
			<path class="st0" d="M60,18H50v-6h10V18z M52,16h6v-2h-6V16z"/>
		</g>
		<g>
			<path class="st0" d="M42,32H2c-1.1,0-2-0.9-2-2V2c0-1.1,0.9-2,2-2h40c1.1,0,2,0.9,2,2v28C44,31.1,43.1,32,42,32z M2,2v28h40l0-28
				H2z"/>
		</g>
		<g>
			<rect x="26" y="31" class="st0" width="2" height="6"/>
		</g>
		<g>
			<rect x="16" y="31" class="st0" width="2" height="6"/>
		</g>
		<g>
			<rect x="14" y="36" class="st0" width="16" height="2"/>
		</g>
		<g>
			<path class="st0" d="M57,56h-4c-1.1,0-2-0.9-2-2v-8c0-1.1,0.9-2,2-2h4c1.1,0,2,0.9,2,2v8C59,55.1,58.1,56,57,56z M53,46v8h4l0-8
				H53z"/>
		</g>
		<g>
			<path class="st0" d="M56,42h-2v-4c0-1.1,0.9-2,2-2h2v2h-2V42z"/>
		</g>
		<g>
			<path class="st0" d="M55,33c-2.2,0-4-1.8-4-4s1.8-4,4-4c2.2,0,4,1.8,4,4S57.2,33,55,33z M55,27c-1.1,0-2,0.9-2,2s0.9,2,2,2
				s2-0.9,2-2S56.1,27,55,27z"/>
		</g>
		<g>
			<polygon class="st0" points="40,28 33,28 33,26 38,26 38,6 6,6 6,26 11,26 11,28 4,28 4,4 40,4 			"/>
		</g>
		<g>
			<rect x="21" y="26" class="st0" width="2" height="2"/>
		</g>
		<g>
			<rect x="17" y="26" class="st0" width="2" height="2"/>
		</g>
		<g>
			<rect x="29" y="26" class="st0" width="2" height="2"/>
		</g>
		<g>
			<rect x="25" y="26" class="st0" width="2" height="2"/>
		</g>
		<g>
			<rect x="13" y="26" class="st0" width="2" height="2"/>
		</g>
	</g>
</g>
</svg>
