<?xml version="1.0" encoding="UTF-8"?>
<svg width="253px" height="38px" viewBox="0 0 253 38" version="1.1" xmlns="http://www.w3.org/2000/svg" xmlns:xlink="http://www.w3.org/1999/xlink">
    <!-- Generator: Sketch 49.1 (51147) - http://www.bohemiancoding.com/sketch -->
    <title>Slice 1</title>
    <desc>Created with Sketch.</desc>
    <defs></defs>
    <g id="Page-1" stroke="none" stroke-width="1" fill="none" fill-rule="evenodd">
        <g id="logo_careers" fill="#000000" fill-rule="nonzero">
            <g id="Group">
                <path d="M14.5,17.8 C14.5,14.1 12.9,12.1 10.5,12.1 C8.1,12.1 6.4,14.1 6.4,17.6 C6.4,21.7 7.9,23.5 10.5,23.5 C13.1,23.5 14.5,21.7 14.5,17.8 Z M0.7,37.7 L0.7,7.8 L6.4,7.8 L6.4,10.2 C7.6,8.2 9.6,7.3 11.7,7.3 C16.8,7.3 20.5,11.4 20.5,18.2 C20.5,24.2 17.5,28.6 12.2,28.6 C9.8,28.6 7.7,27.7 6.5,25.6 L6.5,37.7 L0.7,37.7 Z" id="Shape"></path>
                <path d="M21.6,28.1 L21.6,7.8 L27.2,7.8 L27.2,9.7 C29,7.4 30.8,7.3 32.9,7.3 L33.5,7.3 L33.5,13.4 C33,13.3 32.5,13.3 32,13.3 C29,13.3 27.6,14.5 27.6,17.6 L27.6,28.2 L21.6,28.2 L21.6,28.1 Z" id="Shape"></path>
                <path d="M48.9,17.9 C48.9,14 47.5,12.3 44.5,12.3 C41.5,12.3 40.1,14 40.1,17.9 C40.1,21.8 41.5,23.6 44.5,23.6 C47.4,23.6 48.9,21.8 48.9,17.9 M33.9,17.9 C33.9,11.5 37.9,7.2 44.5,7.2 C50.9,7.2 54.9,11.4 54.9,17.9 C54.9,24.3 50.9,28.6 44.5,28.6 C37.8,28.6 33.9,24.2 33.9,17.9" id="Shape"></path>
                <path d="M57.5,28.1 L57.5,12 L54.4,12 L54.4,7.8 L57.5,7.8 C57.5,2.8 60.3,0.4 66.2,0.4 L66.2,5.2 C63.8,5.2 63.4,5.7 63.4,7.8 L66.4,7.8 L66.4,12 L63.4,12 L63.4,28.1 L57.5,28.1 Z" id="Shape"></path>
                <path d="M80.6,28.1 L80.6,25.6 C79.3,27.7 77.4,28.6 74.7,28.6 C70.6,28.6 67.8,25.8 67.8,21.8 L67.8,7.8 L73.8,7.8 L73.8,20.5 C73.8,22.8 74.9,23.8 76.9,23.8 C79.5,23.8 80.4,22.1 80.4,18.8 L80.4,7.8 L86.3,7.8 L86.3,28.1 L80.6,28.1 Z" id="Shape"></path>
                <path d="M100,13.9 C99.8,12.2 99,11.3 96.8,11.3 C94.7,11.3 93.8,12 93.8,13.1 C93.8,14 94.8,14.6 96.6,15 C103.1,16.6 106.2,17.4 106.2,22.1 C106.2,25.9 103.6,28.6 97.1,28.6 C91.1,28.6 87.4,25.8 87.4,21.5 L93.5,21.5 C93.5,23.1 94.9,24.3 97.2,24.3 C99.1,24.3 100.5,23.8 100.5,22.4 C100.5,21.4 99.8,20.9 97.8,20.5 C89.9,18.7 88.2,16.6 88.2,13 C88.2,9.9 90.5,7.2 97.1,7.2 C103,7.2 105.5,9.7 105.8,13.9 L100,13.9 Z" id="Shape"></path>
            </g>
            <path d="M107.6,7.8 L113.6,7.8 L113.6,28.1 L107.6,28.1 L107.6,7.8 Z M107.6,0.3 L113.6,0.3 L113.6,5.3 L107.6,5.3 L107.6,0.3 Z" id="Shape"></path>
            <g id="Group" transform="translate(114.000000, 6.000000)">
                <path d="M15.7,11.9 C15.7,8 14.3,6.3 11.3,6.3 C8.3,6.3 6.9,8 6.9,11.9 C6.9,15.8 8.3,17.6 11.3,17.6 C14.2,17.6 15.7,15.8 15.7,11.9 M0.7,11.9 C0.7,5.5 4.7,1.2 11.3,1.2 C17.7,1.2 21.7,5.4 21.7,11.9 C21.7,18.3 17.7,22.6 11.3,22.6 C4.6,22.6 0.7,18.2 0.7,11.9" id="Shape"></path>
                <path d="M35.4,22.1 L35.4,9.5 C35.4,6.9 34.5,6.1 32.3,6.1 C29.9,6.1 28.8,7.3 28.8,9.8 L28.8,22.1 L22.8,22.1 L22.8,1.8 L28.5,1.8 L28.5,4.4 C29.7,2.3 31.6,1.3 34.6,1.3 C38.6,1.3 41.5,3.8 41.5,7.8 L41.5,22.2 L35.4,22.2 L35.4,22.1 Z" id="Shape"></path>
                <path d="M69.5,14.2 C68.9,18.8 65.4,21.9 60.8,21.9 C55.6,21.9 52.1,18.3 52.1,11.2 C52.1,4.1 55.7,0.9 61,0.9 C65.9,0.9 69.3,3.9 69.6,8.6 L66.7,8.6 C66.4,5.2 64.1,3.3 60.9,3.3 C57.4,3.3 54.9,5.5 54.9,11.1 C54.9,16.7 57.4,19.5 60.8,19.5 C63.8,19.5 66.3,17.5 66.6,14.1 L69.5,14.1 L69.5,14.2 Z" id="Shape"></path>
                <path d="M85,10.6 C84.4,11.4 82.4,11.4 79.5,11.8 C75.6,12.3 73.7,13 73.7,16.1 C73.7,18.5 75,19.8 78.2,19.8 C81.6,19.8 84.8,17.6 85,14.1 L85,10.6 Z M85.2,21.5 C85.1,21.3 85.1,18.2 85,17.9 C84.1,20.3 81.1,22.1 77.6,22.1 C72.8,22.1 70.8,19.9 70.8,16.5 C70.8,11.4 74.2,10.5 79.4,9.9 C82.8,9.5 84.7,9.3 84.9,8 C84.9,5 83.4,3.2 79.6,3.2 C75.7,3.2 74.2,5 74.1,8 L71.4,8 C71.5,3.9 73.6,1 79.7,1 C85.7,1 87.8,3.8 87.8,8.9 L87.8,21.5 L85.2,21.5 Z" id="Shape"></path>
                <path d="M90.6,21.5 L90.6,1.5 L93.3,1.5 L93.3,6.2 C94.7,2.1 97.8,1 100.5,1 L101.6,1 L101.6,3.9 C101.2,3.9 100.7,3.8 100.1,3.8 C95.6,3.8 93.4,7.2 93.4,11.3 L93.4,21.5 L90.6,21.5 Z" id="Shape"></path>
                <path d="M117.1,10.3 C117,6 114.7,3.3 111.1,3.3 C107.4,3.3 105,6 104.9,10.3 L117.1,10.3 Z M119.7,15.6 C118.6,19.7 115.4,22 111.4,22 C105.1,22 101.9,18.4 101.9,11.1 C101.9,4.9 105.3,1 111.1,1 C116.9,1 120,5.2 120,12.2 L104.7,12.2 C104.8,17.1 107.1,19.8 111.2,19.8 C113.8,19.8 115.9,18.3 116.7,15.7 L119.7,15.7 L119.7,15.6 Z" id="Shape"></path>
                <path d="M135.7,7.6 C135.5,4.6 134,3.2 130.1,3.2 C126.9,3.2 125,4 125,6.4 C125,8.7 126.5,9.3 130.4,10 C135.9,11 139,11.6 139,16.1 C139,19.5 136.2,22.1 130.6,22.1 C125,22.1 121.6,19.4 121.6,15.2 L124.5,15.2 C124.6,18.2 126.9,19.9 130.6,19.9 C135,19.9 136.4,17.7 136.4,15.9 C136.4,13.5 133.4,13 130.3,12.4 C124.1,11.2 122.3,9.8 122.3,6.4 C122.3,3.4 125,1 130.1,1 C136.1,1 138.3,3.5 138.5,7.6 L135.7,7.6 Z" id="Shape"></path>
            </g>
        </g>
    </g>
</svg>