<!-- Generator: Adobe Illustrator 22.1.0, SVG Export Plug-In  -->
<svg version="1.1"
	 xmlns="http://www.w3.org/2000/svg" xmlns:xlink="http://www.w3.org/1999/xlink" xmlns:a="http://ns.adobe.com/AdobeSVGViewerExtensions/3.0/"
	 x="0px" y="0px" width="171.6px" height="41.4px" viewBox="0 0 171.6 41.4" style="enable-background:new 0 0 171.6 41.4;"
	 xml:space="preserve">
<style type="text/css">
	.st0{clip-path:url(#SVGID_2_);fill:#020203;}
	.st1{clip-path:url(#SVGID_4_);fill:#020203;}
	.st2{clip-path:url(#SVGID_6_);fill:#020203;}
	.st3{clip-path:url(#SVGID_8_);fill:#020203;}
	.st4{clip-path:url(#SVGID_10_);fill:#020203;}
	.st5{clip-path:url(#SVGID_12_);fill:#020203;}
	.st6{clip-path:url(#SVGID_14_);fill:#020203;}
	.st7{clip-path:url(#SVGID_16_);fill:#020203;}
	.st8{clip-path:url(#SVGID_18_);fill:#020203;}
	.st9{clip-path:url(#SVGID_20_);fill:#020203;}
	.st10{clip-path:url(#SVGID_22_);fill:#020203;}
	.st11{clip-path:url(#SVGID_24_);fill:#020203;}
</style>
<defs>
</defs>
<g>
	<defs>
		<rect id="SVGID_1_" x="0" width="171.6" height="41.4"/>
	</defs>
	<clipPath id="SVGID_2_">
		<use xlink:href="#SVGID_1_"  style="overflow:visible;"/>
	</clipPath>
	<path class="st0" d="M0,41.4V8.2h6.4l0,2.7c1.3-2.2,3.5-3.3,5.9-3.3c5.7,0,9.8,4.6,9.8,12.1c0,6.7-3.3,11.6-9.2,11.6
		c-2.7,0-4.9-1-6.4-3.3v13.4H0z M15.3,19.4c0-4.1-1.8-6.3-4.5-6.3c-2.6,0-4.5,2.2-4.5,6.1c0,4.5,1.6,6.5,4.5,6.5
		C13.7,25.7,15.3,23.8,15.3,19.4"/>
</g>
<g>
	<defs>
		<rect id="SVGID_3_" x="0" y="0" width="171.6" height="41.4"/>
	</defs>
	<clipPath id="SVGID_4_">
		<use xlink:href="#SVGID_3_"  style="overflow:visible;"/>
	</clipPath>
	<path class="st1" d="M23.2,30.8V8.2h6.2v2.1c2-2.5,4-2.7,6.3-2.7h0.6v6.8c-0.5-0.1-1.1-0.1-1.6-0.1c-3.3,0-4.9,1.3-4.9,4.7v11.8
		H23.2z"/>
</g>
<g>
	<defs>
		<rect id="SVGID_5_" x="0" width="171.6" height="41.4"/>
	</defs>
	<clipPath id="SVGID_6_">
		<use xlink:href="#SVGID_5_"  style="overflow:visible;"/>
	</clipPath>
	<path class="st2" d="M36.8,19.5c0-7.1,4.5-11.9,11.7-11.9c7.1,0,11.6,4.7,11.6,11.9c0,7.1-4.5,11.9-11.6,11.9
		C41.2,31.4,36.8,26.5,36.8,19.5 M53.4,19.5c0-4.3-1.6-6.2-4.9-6.2c-3.3,0-4.9,1.9-4.9,6.2c0,4.3,1.6,6.3,4.9,6.3
		C51.8,25.8,53.4,23.8,53.4,19.5"/>
	<path class="st2" d="M63,30.8V12.9h-3.4V8.2H63C63,2.7,66.2,0,72.7,0v5.4c-2.7,0-3.2,0.6-3.2,2.9h3.3v4.7h-3.3v17.9H63z"/>
</g>
<g>
	<defs>
		<rect id="SVGID_7_" x="0" y="0" width="171.6" height="41.4"/>
	</defs>
	<clipPath id="SVGID_8_">
		<use xlink:href="#SVGID_7_"  style="overflow:visible;"/>
	</clipPath>
	<path class="st3" d="M88.6,30.8V28c-1.4,2.3-3.5,3.3-6.5,3.3c-4.5,0-7.7-3.2-7.7-7.6V8.2H81v14.1c0,2.5,1.2,3.7,3.4,3.7
		c2.9,0,3.8-1.9,3.8-5.5V8.2h6.6v22.5H88.6z"/>
</g>
<g>
	<defs>
		<rect id="SVGID_9_" x="0" width="171.6" height="41.4"/>
	</defs>
	<clipPath id="SVGID_10_">
		<use xlink:href="#SVGID_9_"  style="overflow:visible;"/>
	</clipPath>
	<path class="st4" d="M110.1,15.1c-0.2-1.8-1.1-2.9-3.6-2.9c-2.3,0-3.3,0.8-3.3,2c0,1,1.1,1.6,3.2,2.2c7.2,1.7,10.6,2.6,10.6,7.9
		c0,4.3-2.9,7.2-10.1,7.2c-6.6,0-10.7-3.1-10.8-7.8h6.8c0,1.8,1.6,3.1,4.1,3.1c2.2,0,3.6-0.6,3.6-2.1c0-1.1-0.8-1.6-3-2.2
		c-8.8-2-10.7-4.3-10.7-8.3c0-3.4,2.5-6.5,9.8-6.5c6.6,0,9.3,2.8,9.6,7.4H110.1z"/>
	<path class="st4" d="M118.6,0h6.6v5.5h-6.6V0z M118.6,8.2h6.6v22.5h-6.6V8.2z"/>
</g>
<g>
	<defs>
		<rect id="SVGID_11_" x="0" y="0" width="171.6" height="41.4"/>
	</defs>
	<clipPath id="SVGID_12_">
		<use xlink:href="#SVGID_11_"  style="overflow:visible;"/>
	</clipPath>
	<path class="st5" d="M126.5,19.5c0-7.1,4.5-11.9,11.7-11.9c7.1,0,11.6,4.7,11.6,11.9c0,7.1-4.5,11.9-11.6,11.9
		C130.8,31.4,126.5,26.5,126.5,19.5 M143.1,19.5c0-4.3-1.6-6.2-4.9-6.2c-3.3,0-4.9,1.9-4.9,6.2c0,4.3,1.6,6.3,4.9,6.3
		C141.5,25.8,143.1,23.8,143.1,19.5"/>
	<path class="st5" d="M164.9,30.8v-14c0-2.8-1.1-3.8-3.4-3.8c-2.6,0-3.9,1.3-3.9,4.1v13.6h-6.6V8.2h6.3v2.8c1.3-2.3,3.5-3.4,6.8-3.4
		c4.4,0,7.6,2.8,7.6,7.2v15.9H164.9z"/>
</g>
</svg>
