<!-- Generator: Adobe Illustrator 22.1.0, SVG Export Plug-In  -->
<svg version="1.1"
	 xmlns="http://www.w3.org/2000/svg" xmlns:xlink="http://www.w3.org/1999/xlink" xmlns:a="http://ns.adobe.com/AdobeSVGViewerExtensions/3.0/"
	 x="0px" y="0px" width="69.3px" height="69.5px" viewBox="0 0 69.3 69.5" style="enable-background:new 0 0 69.3 69.5;"
	 xml:space="preserve">
<style type="text/css">
	.st0{fill:#1a9fdf;}
</style>
<defs>
</defs>
<g>
	<path class="st0" d="M27.7,34.8c0,3.8,3.1,6.9,6.9,6.9c3.8,0,6.9-3.1,6.9-6.9c0-3.8-3.1-6.9-6.9-6.9C30.8,27.9,27.7,31,27.7,34.8z
		 M34.6,29.5c1.5,0,2.8,0.6,3.7,1.5c1,1,1.5,2.3,1.5,3.7c0,1.5-0.6,2.8-1.5,3.7c-1,1-2.3,1.5-3.7,1.5c-1.5,0-2.8-0.6-3.7-1.5
		c-1-1-1.5-2.3-1.5-3.7c0-1.5,0.6-2.8,1.5-3.7C31.9,30.1,33.2,29.5,34.6,29.5z"/>
	<g>
		<path class="st0" d="M34.6,0c-2.6,0-4.7,2.1-4.7,4.7c0,2.6,2.1,4.7,4.7,4.7c2.6,0,4.7-2.1,4.7-4.7C39.3,2.1,37.2,0,34.6,0z
			 M34.6,7.8c-0.9,0-1.6-0.3-2.2-0.9c-0.6-0.6-0.9-1.3-0.9-2.2c0-0.9,0.3-1.6,0.9-2.2C33,2,33.8,1.6,34.6,1.6c0.9,0,1.6,0.3,2.2,0.9
			c0.6,0.6,0.9,1.3,0.9,2.2c0,0.9-0.3,1.6-0.9,2.2C36.3,7.4,35.5,7.8,34.6,7.8z"/>
		<path class="st0" d="M64.6,29.9c-2.6,0-4.7,2.1-4.7,4.7c0,2.6,2.1,4.7,4.7,4.7c2.6,0,4.7-2.1,4.7-4.7C69.3,32,67.2,29.9,64.6,29.9
			z M64.6,37.7c-0.9,0-1.6-0.3-2.2-0.9c-0.6-0.6-0.9-1.3-0.9-2.2c0-0.9,0.3-1.6,0.9-2.2c0.6-0.6,1.3-0.9,2.2-0.9
			c0.9,0,1.6,0.3,2.2,0.9c0.6,0.6,0.9,1.3,0.9,2.2c0,0.9-0.3,1.6-0.9,2.2C66.2,37.4,65.4,37.7,64.6,37.7z"/>
		<path class="st0" d="M9.4,34.6c0-2.6-2.1-4.7-4.7-4.7C2.1,29.9,0,32,0,34.6c0,2.6,2.1,4.7,4.7,4.7C7.3,39.3,9.4,37.2,9.4,34.6z
			 M4.7,31.6c0.9,0,1.6,0.3,2.2,0.9c0.6,0.6,0.9,1.3,0.9,2.2c0,0.9-0.3,1.6-0.9,2.2c-0.6,0.6-1.3,0.9-2.2,0.9
			c-0.9,0-1.6-0.3-2.2-0.9c-0.6-0.6-0.9-1.3-0.9-2.2c0-0.9,0.3-1.6,0.9-2.2C3.1,31.9,3.9,31.6,4.7,31.6z"/>
		<path class="st0" d="M55.8,8.8c-1.2,0-2.4,0.5-3.3,1.4c-0.9,0.9-1.4,2.1-1.4,3.3c0,1.2,0.5,2.4,1.4,3.3c0.9,0.9,2.1,1.4,3.3,1.4
			c1.2,0,2.4-0.5,3.3-1.4c0.9-0.9,1.4-2.1,1.4-3.3c0-1.2-0.5-2.4-1.4-3.3l0,0C58.2,9.2,57,8.8,55.8,8.8z M58.9,13.5
			c0,0.8-0.3,1.6-0.9,2.2c-0.6,0.6-1.4,0.9-2.2,0.9c-0.8,0-1.6-0.3-2.2-0.9c-0.6-0.6-0.9-1.4-0.9-2.2c0-0.8,0.3-1.6,0.9-2.2
			c0.6-0.6,1.4-0.9,2.2-0.9c0.8,0,1.6,0.3,2.2,0.9l0.6-0.6L58,11.3C58.6,11.9,58.9,12.7,58.9,13.5z"/>
		<path class="st0" d="M10.1,59.1c0.9,0.9,2.1,1.4,3.3,1.4c1.2,0,2.4-0.5,3.3-1.4c0.9-0.9,1.4-2.1,1.4-3.3c0-1.2-0.5-2.4-1.4-3.3h0
			c-0.9-0.9-2.1-1.4-3.3-1.4c-1.2,0-2.4,0.5-3.3,1.4c-0.9,0.9-1.4,2.1-1.4,3.3C8.8,57,9.2,58.2,10.1,59.1z M13.5,52.7
			c0.8,0,1.6,0.3,2.2,0.9l0.6-0.6l-0.6,0.6c0.6,0.6,0.9,1.4,0.9,2.2c0,0.8-0.3,1.6-0.9,2.2c-0.6,0.6-1.4,0.9-2.2,0.9
			c-0.8,0-1.6-0.3-2.2-0.9c-0.6-0.6-0.9-1.4-0.9-2.2c0-0.8,0.3-1.6,0.9-2.2C11.9,53,12.7,52.7,13.5,52.7z"/>
		<path class="st0" d="M51.1,55.8c0,1.2,0.5,2.4,1.4,3.3c0.9,0.9,2.1,1.4,3.3,1.4c1.2,0,2.4-0.5,3.3-1.4c0.9-0.9,1.4-2.1,1.4-3.3
			c0-1.2-0.5-2.4-1.4-3.3c-0.9-0.9-2.1-1.4-3.3-1.4c-1.2,0-2.4,0.5-3.3,1.4C51.6,53.4,51.1,54.6,51.1,55.8z M58,53.6
			c0.6,0.6,0.9,1.4,0.9,2.2c0,0.8-0.3,1.6-0.9,2.2c-0.6,0.6-1.4,0.9-2.2,0.9c-0.8,0-1.6-0.3-2.2-0.9c-0.6-0.6-0.9-1.4-0.9-2.2
			c0-0.8,0.3-1.6,0.9-2.2c0.6-0.6,1.4-0.9,2.2-0.9C56.6,52.7,57.4,53,58,53.6z"/>
		<path class="st0" d="M13.5,8.8c-1.2,0-2.4,0.5-3.3,1.4c-0.9,0.9-1.4,2.1-1.4,3.3c0,1.2,0.5,2.4,1.4,3.3c0.9,0.9,2.1,1.4,3.3,1.4
			c1.2,0,2.4-0.5,3.3-1.4c0.9-0.9,1.4-2.1,1.4-3.3c0-1.2-0.5-2.4-1.4-3.3C15.9,9.2,14.7,8.8,13.5,8.8z M15.7,15.7
			c-0.6,0.6-1.4,0.9-2.2,0.9c-0.8,0-1.6-0.3-2.2-0.9c-0.6-0.6-0.9-1.4-0.9-2.2c0-0.8,0.3-1.6,0.9-2.2c0.6-0.6,1.4-0.9,2.2-0.9
			c0.8,0,1.6,0.3,2.2,0.9c0.6,0.6,0.9,1.4,0.9,2.2C16.6,14.3,16.3,15.1,15.7,15.7z"/>
		<g>
			<rect x="33.8" y="21.7" class="st0" width="1.6" height="1.1"/>
			<rect x="33.8" y="26.3" class="st0" width="1.6" height="1.1"/>
			<rect x="33.8" y="12.6" class="st0" width="1.6" height="1.1"/>
			<rect x="33.8" y="24" class="st0" width="1.6" height="1.1"/>
			<rect x="33.8" y="14.9" class="st0" width="1.6" height="1.1"/>
			<rect x="33.8" y="17.2" class="st0" width="1.6" height="1.1"/>
			<rect x="33.8" y="19.4" class="st0" width="1.6" height="1.1"/>
			<rect x="33.8" y="10.3" class="st0" width="1.6" height="1.1"/>
			<rect x="33.8" y="44.4" class="st0" width="1.6" height="1.1"/>
			<rect x="33.8" y="55.6" class="st0" width="1.6" height="1.1"/>
			<rect x="33.8" y="57.9" class="st0" width="1.6" height="1.1"/>
			<rect x="33.8" y="53.4" class="st0" width="1.6" height="1.1"/>
			<rect x="33.8" y="48.9" class="st0" width="1.6" height="1.1"/>
			<rect x="33.8" y="42.2" class="st0" width="1.6" height="1.1"/>
			<rect x="33.8" y="46.7" class="st0" width="1.6" height="1.1"/>
			<rect x="33.8" y="51.2" class="st0" width="1.6" height="1.1"/>
			<rect x="48.8" y="34" class="st0" width="1.1" height="1.6"/>
			<rect x="51.1" y="34" class="st0" width="1.1" height="1.6"/>
			<rect x="55.6" y="34" class="st0" width="1.1" height="1.6"/>
			<rect x="42" y="34" class="st0" width="1.1" height="1.6"/>
			<rect x="53.3" y="34" class="st0" width="1.1" height="1.6"/>
			<rect x="57.9" y="34" class="st0" width="1.1" height="1.6"/>
			<rect x="44.3" y="34" class="st0" width="1.1" height="1.6"/>
			<rect x="46.5" y="34" class="st0" width="1.1" height="1.6"/>
			<rect x="23.9" y="34" class="st0" width="1.1" height="1.6"/>
			<rect x="26.1" y="34" class="st0" width="1.1" height="1.6"/>
			<rect x="12.5" y="34" class="st0" width="1.1" height="1.6"/>
			<rect x="10.3" y="34" class="st0" width="1.1" height="1.6"/>
			<rect x="14.8" y="34" class="st0" width="1.1" height="1.6"/>
			<rect x="21.6" y="34" class="st0" width="1.1" height="1.6"/>
			<rect x="19.3" y="34" class="st0" width="1.1" height="1.6"/>
			<rect x="17.1" y="34" class="st0" width="1.1" height="1.6"/>
			<rect x="49.3" y="18.6" transform="matrix(0.7071 -0.7071 0.7071 0.7071 0.8465 40.934)" class="st0" width="1.1" height="1.6"/>
			<rect x="44.4" y="23.5" transform="matrix(0.7072 -0.707 0.707 0.7072 -4.01 38.9148)" class="st0" width="1.1" height="1.6"/>
			<rect x="46" y="21.9" transform="matrix(0.707 -0.7073 0.7073 0.707 -2.3859 39.6044)" class="st0" width="1.1" height="1.6"/>
			
				<rect x="47.6" y="20.2" transform="matrix(0.7071 -0.7071 0.7071 0.7071 -0.7716 40.2636)" class="st0" width="1.1" height="1.6"/>
			
				<rect x="39.6" y="28.3" transform="matrix(0.7071 -0.7071 0.7071 0.7071 -8.8616 36.9125)" class="st0" width="1.1" height="1.6"/>
			
				<rect x="41.2" y="26.7" transform="matrix(0.7073 -0.7069 0.7069 0.7073 -7.2464 37.5687)" class="st0" width="1.1" height="1.6"/>
			<rect x="50.9" y="17" transform="matrix(0.7073 -0.707 0.707 0.7073 2.4593 41.5937)" class="st0" width="1.1" height="1.6"/>
			
				<rect x="42.8" y="25.1" transform="matrix(0.7071 -0.7071 0.7071 0.7071 -5.6255 38.2531)" class="st0" width="1.1" height="1.6"/>
			
				<rect x="25.2" y="42.7" transform="matrix(0.7071 -0.7071 0.7071 0.7071 -23.255 30.9514)" class="st0" width="1.1" height="1.6"/>
			
				<rect x="22" y="45.9" transform="matrix(0.7071 -0.7071 0.7071 0.7071 -26.4265 29.6356)" class="st0" width="1.1" height="1.6"/>
			
				<rect x="20.4" y="47.5" transform="matrix(0.7071 -0.7071 0.7071 0.7071 -28.0133 28.9809)" class="st0" width="1.1" height="1.6"/>
			
				<rect x="23.6" y="44.3" transform="matrix(0.7071 -0.7071 0.7071 0.7071 -24.8411 30.2947)" class="st0" width="1.1" height="1.6"/>
			
				<rect x="28.3" y="39.6" transform="matrix(0.7071 -0.7071 0.7071 0.7071 -20.0829 32.2652)" class="st0" width="1.1" height="1.6"/>
			
				<rect x="17.2" y="50.7" transform="matrix(0.7071 -0.7071 0.7071 0.7071 -31.1859 27.668)" class="st0" width="1.1" height="1.6"/>
			
				<rect x="26.8" y="41.1" transform="matrix(0.7071 -0.7071 0.7071 0.7071 -21.6695 31.6103)" class="st0" width="1.1" height="1.6"/>
			<rect x="18.8" y="49.1" transform="matrix(0.7073 -0.707 0.707 0.7073 -29.5946 28.313)" class="st0" width="1.1" height="1.6"/>
			
				<rect x="47.3" y="47.8" transform="matrix(0.7071 -0.7071 0.7071 0.7071 -20.1267 48.2055)" class="st0" width="1.6" height="1.1"/>
			<rect x="50.5" y="51" transform="matrix(0.7071 -0.7071 0.7071 0.7071 -21.4541 51.41)" class="st0" width="1.6" height="1.1"/>
			
				<rect x="48.9" y="49.4" transform="matrix(0.7073 -0.7069 0.7069 0.7073 -20.7903 49.7852)" class="st0" width="1.6" height="1.1"/>
			
				<rect x="39.3" y="39.8" transform="matrix(0.7071 -0.7071 0.7071 0.7071 -16.8088 40.1956)" class="st0" width="1.6" height="1.1"/>
			
				<rect x="44.1" y="44.6" transform="matrix(0.7074 -0.7068 0.7068 0.7074 -18.7996 44.9773)" class="st0" width="1.6" height="1.1"/>
			
				<rect x="42.5" y="43" transform="matrix(0.7071 -0.7071 0.7071 0.7071 -18.1361 43.3998)" class="st0" width="1.6" height="1.1"/>
			
				<rect x="45.7" y="46.2" transform="matrix(0.7071 -0.7071 0.7071 0.7071 -19.4633 46.6034)" class="st0" width="1.6" height="1.1"/>
			
				<rect x="40.9" y="41.4" transform="matrix(0.7071 -0.7071 0.7071 0.7071 -17.4725 41.7975)" class="st0" width="1.6" height="1.1"/>
			
				<rect x="20.1" y="20.6" transform="matrix(0.7071 -0.7071 0.7071 0.7071 -8.8425 20.9634)" class="st0" width="1.6" height="1.1"/>
			
				<rect x="21.7" y="22.2" transform="matrix(0.7071 -0.7071 0.7071 0.7071 -9.5059 22.5658)" class="st0" width="1.6" height="1.1"/>
			
				<rect x="28.1" y="28.6" transform="matrix(0.7071 -0.7071 0.7071 0.7071 -12.1601 28.9732)" class="st0" width="1.6" height="1.1"/>
			
				<rect x="24.9" y="25.4" transform="matrix(0.7069 -0.7073 0.7073 0.7069 -10.8332 25.782)" class="st0" width="1.6" height="1.1"/>
			
				<rect x="23.3" y="23.8" transform="matrix(0.7071 -0.7071 0.7071 0.7071 -10.1697 24.1677)" class="st0" width="1.6" height="1.1"/>
			
				<rect x="26.5" y="27" transform="matrix(0.7073 -0.7069 0.7069 0.7073 -11.4966 27.3591)" class="st0" width="1.6" height="1.1"/>
			
				<rect x="16.9" y="17.4" transform="matrix(0.7071 -0.7071 0.7071 0.7071 -7.5154 17.7595)" class="st0" width="1.6" height="1.1"/>
			<rect x="18.5" y="19" transform="matrix(0.7071 -0.7071 0.7071 0.7071 -8.1789 19.3607)" class="st0" width="1.6" height="1.1"/>
		</g>
		<path class="st0" d="M34.6,69.5c-2.6,0-4.8-2.1-4.8-4.8s2.1-4.8,4.8-4.8c2.6,0,4.8,2.1,4.8,4.8S37.3,69.5,34.6,69.5z M34.6,61.9
			c-1.5,0-2.8,1.2-2.8,2.8s1.2,2.8,2.8,2.8c1.5,0,2.8-1.2,2.8-2.8S36.2,61.9,34.6,61.9z"/>
	</g>
</g>
</svg>
