<!-- Generator: Adobe Illustrator 22.0.0, SVG Export Plug-In  -->
<svg version="1.1"
	 xmlns="http://www.w3.org/2000/svg" xmlns:xlink="http://www.w3.org/1999/xlink" xmlns:a="http://ns.adobe.com/AdobeSVGViewerExtensions/3.0/"
	 x="0px" y="0px" width="71px" height="71px" viewBox="0 0 71 71" style="enable-background:new 0 0 71 71;" xml:space="preserve">
<style type="text/css">
	.st0{fill:#009EE2;}
</style>
<defs>
</defs>
<g>
	<g>
		<rect x="14.4" y="23.3" class="st0" width="2.2" height="2.2"/>
	</g>
	<g>
		<rect x="8.9" y="20" class="st0" width="2.2" height="2.2"/>
	</g>
	<g>
		<rect x="3.3" y="16.6" class="st0" width="2.2" height="2.2"/>
	</g>
	<g>
		<rect x="23.3" y="14.4" class="st0" width="2.2" height="2.2"/>
	</g>
	<g>
		<rect x="20" y="8.9" class="st0" width="2.2" height="2.2"/>
	</g>
	<g>
		<rect x="16.6" y="3.3" class="st0" width="2.2" height="2.2"/>
	</g>
	<g>
		<rect x="34.4" y="5.5" class="st0" width="2.2" height="2.2"/>
	</g>
	<g>
		<rect x="34.4" y="11.1" class="st0" width="2.2" height="2.2"/>
	</g>
	<g>
		<rect x="34.4" class="st0" width="2.2" height="2.2"/>
	</g>
	<g>
		<rect x="54.4" y="23.3" class="st0" width="2.2" height="2.2"/>
	</g>
	<g>
		<rect x="59.9" y="20" class="st0" width="2.2" height="2.2"/>
	</g>
	<g>
		<rect x="65.5" y="16.6" class="st0" width="2.2" height="2.2"/>
	</g>
	<g>
		<rect x="45.5" y="14.4" class="st0" width="2.2" height="2.2"/>
	</g>
	<g>
		<rect x="48.8" y="8.9" class="st0" width="2.2" height="2.2"/>
	</g>
	<g>
		<rect x="52.1" y="3.3" class="st0" width="2.2" height="2.2"/>
	</g>
	<g>
		<rect x="5.5" y="34.4" class="st0" width="2.2" height="2.2"/>
	</g>
	<g>
		<rect x="11.1" y="34.4" class="st0" width="2.2" height="2.2"/>
	</g>
	<g>
		<rect y="34.4" class="st0" width="2.2" height="2.2"/>
	</g>
	<g>
		<rect x="14.4" y="45.5" class="st0" width="2.2" height="2.2"/>
	</g>
	<g>
		<rect x="8.9" y="48.8" class="st0" width="2.2" height="2.2"/>
	</g>
	<g>
		<rect x="3.3" y="52.1" class="st0" width="2.2" height="2.2"/>
	</g>
	<g>
		<rect x="63.2" y="34.4" class="st0" width="2.2" height="2.2"/>
	</g>
	<g>
		<rect x="57.7" y="34.4" class="st0" width="2.2" height="2.2"/>
	</g>
	<g>
		<rect x="68.8" y="34.4" class="st0" width="2.2" height="2.2"/>
	</g>
	<g>
		<rect x="54.4" y="45.5" class="st0" width="2.2" height="2.2"/>
	</g>
	<g>
		<rect x="59.9" y="48.8" class="st0" width="2.2" height="2.2"/>
	</g>
	<g>
		<rect x="65.5" y="52.1" class="st0" width="2.2" height="2.2"/>
	</g>
	<g>
		<g>
			<rect x="34.4" y="64.3" class="st0" width="2.2" height="6.7"/>
		</g>
		<g>
			<rect x="34.4" y="39.9" class="st0" width="2.2" height="2.2"/>
		</g>
		<g>
			<rect x="28.8" y="59.9" class="st0" width="13.3" height="2.2"/>
		</g>
		<g>
			<rect x="27.7" y="63.2" class="st0" width="2.2" height="7.8"/>
		</g>
		<g>
			<path class="st0" d="M47.7,64.3H41v-20h2.2v17.8h2.2V41c0-1.8-1.5-3.3-3.3-3.3H28.8c-1.8,0-3.3,1.5-3.3,3.3v21.1h2.2V44.4H30v20
				h-6.7V41c0-3.1,2.5-5.5,5.5-5.5h13.3c3.1,0,5.5,2.5,5.5,5.5V64.3z"/>
		</g>
		<g>
			<rect x="41" y="63.2" class="st0" width="2.2" height="7.8"/>
		</g>
		<g>
			<path class="st0" d="M35.5,33.3c-3.1,0-5.5-2.5-5.5-5.5s2.5-5.5,5.5-5.5c3.1,0,5.5,2.5,5.5,5.5S38.6,33.3,35.5,33.3z M35.5,24.4
				c-1.8,0-3.3,1.5-3.3,3.3s1.5,3.3,3.3,3.3c1.8,0,3.3-1.5,3.3-3.3S37.3,24.4,35.5,24.4z"/>
		</g>
	</g>
</g>
</svg>
