<!-- Generator: Adobe Illustrator 22.1.0, SVG Export Plug-In  -->
<svg version="1.1"
	 xmlns="http://www.w3.org/2000/svg" xmlns:xlink="http://www.w3.org/1999/xlink" xmlns:a="http://ns.adobe.com/AdobeSVGViewerExtensions/3.0/"
	 x="0px" y="0px" width="59.8px" height="56.1px" viewBox="0 0 59.8 56.1" style="enable-background:new 0 0 59.8 56.1;"
	 xml:space="preserve">
<style type="text/css">
	.st0{fill:#22acb2;}
</style>
<defs>
</defs>
<g>
	<g>
		<rect x="16.8" y="30.8" class="st0" width="1.9" height="5.6"/>
	</g>
	<g>
		<rect x="4.7" y="24.3" class="st0" width="1.9" height="14.9"/>
	</g>
	<g>
		<path class="st0" d="M24.7,31.8H14v-1.9h9.9l0.4-0.4v-8.8l3.7-0.9v-0.1L23.6,5.6h-0.2c-2.6,0-4.7,2.1-4.7,4.7v0.9h-8.4
			c-1.5,0-2.8,1.3-2.8,2.8s1.3,2.8,2.8,2.8v1.9c-2.6,0-4.7-2.1-4.7-4.7s2.1-4.7,4.7-4.7h6.6c0.5-3.2,3.2-5.6,6.5-5.6H25l4.9,15.9
			v1.7l-3.7,0.9v8.1L24.7,31.8z"/>
	</g>
	<g>
		<path class="st0" d="M51,45.7L50.3,44c4.6-1.9,7.6-6.3,7.6-11.3c0-6.7-5.4-12.1-12.1-12.1v-1.9c7.7,0,14,6.3,14,14
			C59.8,38.5,56.3,43.6,51,45.7z"/>
	</g>
	<g>
		<rect x="41.1" y="49.5" class="st0" width="1.9" height="6.5"/>
	</g>
	<g>
		<rect x="53.2" y="43" class="st0" width="1.9" height="13.1"/>
	</g>
	<g>
		<path class="st0" d="M45.8,50.4H35.1L33.6,49v-8.1L29.9,40l0-1.9l4.9-15.6h1.6c3.2,0,6,2.5,6.5,5.6h6.6c2.6,0,4.7,2.1,4.7,4.7
			s-2.1,4.7-4.7,4.7v-1.9c1.5,0,2.8-1.3,2.8-2.8c0-1.5-1.3-2.8-2.8-2.8h-8.4V29c0-2.2-2-4.7-4.7-4.7h-0.2l-4.4,14.2l3.7,0.9v8.8
			l0.4,0.4h9.9V50.4z"/>
	</g>
	<g>
		<path class="st0" d="M8.8,27C3.5,24.9,0,19.8,0,14C0,6.3,6.3,0,14,0h12.1v1.9H14C7.3,1.9,1.9,7.3,1.9,14c0,5,3,9.4,7.6,11.3
			L8.8,27z"/>
	</g>
	<g>
		<path class="st0" d="M43.9,20.6h-5.6c-3.1,0-5.6-2.5-5.6-5.6s2.5-5.6,5.6-5.6h15.9c2.1,0,3.7-1.7,3.7-3.7s-1.7-3.7-3.7-3.7H28V0
			h26.2c3.1,0,5.6,2.5,5.6,5.6s-2.5,5.6-5.6,5.6H38.3c-2.1,0-3.7,1.7-3.7,3.7s1.7,3.7,3.7,3.7h5.6V20.6z"/>
	</g>
	<g>
		<path class="st0" d="M54.2,7.5c-1,0-1.9-0.8-1.9-1.9s0.8-1.9,1.9-1.9c1,0,1.9,0.8,1.9,1.9S55.2,7.5,54.2,7.5z M54.2,5.6L54.2,5.6
			L54.2,5.6z"/>
	</g>
	<g>
		<rect x="29.9" y="4.7" class="st0" width="1.9" height="1.9"/>
	</g>
	<g>
		<rect x="33.6" y="4.7" class="st0" width="1.9" height="1.9"/>
	</g>
	<g>
		<rect x="37.4" y="4.7" class="st0" width="1.9" height="1.9"/>
	</g>
	<g>
		<rect x="45.8" y="14" class="st0" width="1.9" height="1.9"/>
	</g>
	<g>
		<rect x="49.5" y="14" class="st0" width="1.9" height="1.9"/>
	</g>
	<g>
		<rect x="53.2" y="14" class="st0" width="1.9" height="1.9"/>
	</g>
	<g>
		<polygon class="st0" points="26.2,56.1 24.3,56.1 24.3,49.8 17.3,40.2 10.3,40.2 10.3,38.3 18.2,38.3 26.2,49.2 		"/>
	</g>
	<g>
		<polygon class="st0" points="1.9,56.1 0,56.1 0,46.5 3.1,38.3 8.4,38.3 8.4,40.2 4.4,40.2 1.9,46.9 		"/>
	</g>
	<g>
		<path class="st0" d="M18.7,56.1h-1.9v-3.7c0-2.6-2.1-4.7-4.7-4.7c-2.6,0-4.7,2.1-4.7,4.7v3.7H5.6v-3.7c0-3.6,2.9-6.5,6.5-6.5
			c3.6,0,6.5,2.9,6.5,6.5V56.1z"/>
	</g>
	<g>
		<path class="st0" d="M38.3,16.8c-1,0-1.9-0.8-1.9-1.9s0.8-1.9,1.9-1.9c1,0,1.9,0.8,1.9,1.9S39.3,16.8,38.3,16.8z M38.3,14.9
			L38.3,14.9L38.3,14.9z"/>
	</g>
</g>
</svg>
