<?xml version="1.0" encoding="UTF-8"?>
<svg width="46px" height="46px" viewBox="0 0 46 46" version="1.1" xmlns="http://www.w3.org/2000/svg" xmlns:xlink="http://www.w3.org/1999/xlink">
    <!-- Generator: Sketch 49.1 (51147) - http://www.bohemiancoding.com/sketch -->
    <title>Slice 1</title>
    <desc>Created with Sketch.</desc>
    <defs>
        <polygon id="path-1" points="0.06 0.04 46 0.04 46 46 0.06 46"></polygon>
    </defs>
    <g id="Page-1" stroke="none" stroke-width="1" fill="none" fill-rule="evenodd">
        <g id="Technical_guide_icon">
            <g id="Group-3">
                <mask id="mask-2" fill="white">
                    <use xlink:href="#path-1"></use>
                </mask>
                <g id="Clip-2"></g>
                <path d="M46,23 C46,35.702 35.702,46 23,46 C10.297,46 0,35.702 0,23 C0,10.297 10.297,0 23,0 C35.702,0 46,10.297 46,23" id="Fill-1" fill="#BC262D" mask="url(#mask-2)"></path>
            </g>
            <path d="M27.281,13.434 L30.052,16.089 L27.281,16.089 L27.281,13.434 Z M13.815,10.579 C13.595,10.579 13.374,10.668 13.218,10.825 C13.062,10.981 12.972,11.202 12.972,11.423 L12.972,36.156 C12.972,36.377 13.062,36.596 13.218,36.752 C13.374,36.908 13.595,37 13.815,37 L32.185,37 C32.405,37 32.626,36.908 32.782,36.752 C32.938,36.596 33.028,36.377 33.028,36.156 L33.028,16.966 C33.004,16.719 32.916,16.47 32.769,16.324 L27.021,10.812 C26.871,10.668 26.664,10.584 26.455,10.581 C25.238,10.58 24.021,10.579 22.802,10.579 C22.829,11.142 22.853,11.704 22.875,12.267 L25.594,12.267 L25.594,16.933 C25.594,17.154 25.686,17.373 25.841,17.529 C25.997,17.685 26.217,17.777 26.437,17.777 L31.341,17.777 L31.341,35.312 L14.659,35.312 L14.659,12.267 L16.114,12.267 L16.114,10.579 L13.815,10.579 Z" id="Fill-4" fill="#FFFFFE"></path>
            <path d="M17.242,27.717 L28.758,27.717 C29.072,27.717 29.327,27.972 29.327,28.286 L29.327,28.836 C29.327,29.149 29.072,29.404 28.758,29.404 L17.242,29.404 C16.928,29.404 16.673,29.149 16.673,28.836 L16.673,28.286 C16.673,27.972 16.928,27.717 17.242,27.717" id="Fill-5" fill="#FFFFFE"></path>
            <path d="M17.242,30.89 L28.758,30.89 C29.072,30.89 29.327,31.145 29.327,31.459 L29.327,32.009 C29.327,32.322 29.072,32.577 28.758,32.577 L17.242,32.577 C16.928,32.577 16.673,32.322 16.673,32.009 L16.673,31.459 C16.673,31.145 16.928,30.89 17.242,30.89" id="Fill-6" fill="#FFFFFE"></path>
            <path d="M19.668,10.276 L19.668,19.948 C19.668,20.177 19.482,20.363 19.252,20.363 C19.023,20.363 18.837,20.177 18.837,19.948 L18.837,10.276 C18.837,10.046 19.023,9.86 19.252,9.86 C19.482,9.86 19.668,10.046 19.668,10.276 Z M19.996,21.952 C19.996,22.351 19.673,22.674 19.273,22.674 C18.875,22.674 18.551,22.351 18.551,21.952 C18.551,21.552 18.875,21.229 19.273,21.229 C19.673,21.229 19.996,21.552 19.996,21.952 Z M21.255,7.268 L19.238,8.432 L17.221,7.268 L17.221,4.992 C16.465,5.591 15.979,6.517 15.979,7.557 C15.979,8.603 16.47,9.533 17.233,10.132 C17.419,10.278 17.836,10.603 17.836,11.528 L17.836,21.626 C17.836,21.656 17.838,21.686 17.842,21.716 C17.838,21.761 17.836,21.806 17.836,21.853 C17.836,22.635 18.47,23.269 19.252,23.269 C20.035,23.269 20.669,22.635 20.669,21.852 C20.669,21.806 20.667,21.761 20.663,21.716 C20.667,21.686 20.669,21.656 20.669,21.626 L20.669,11.528 C20.648,10.858 21.008,10.326 21.164,10.214 C21.988,9.62 22.525,8.651 22.525,7.557 C22.525,6.504 22.028,5.568 21.255,4.969 L21.255,7.268 Z" id="Fill-7" fill="#FFFFFE"></path>
        </g>
    </g>
</svg>