<svg xmlns="http://www.w3.org/2000/svg" xmlns:xlink="http://www.w3.org/1999/xlink" xmlns:a="http://ns.adobe.com/AdobeSVGViewerExtensions/3.0/" version="1.1" x="0px" y="0px" width="46px" height="46px" viewBox="0 0 46 46" style="overflow:scroll;enable-background:new 0 0 46 46;" xml:space="preserve">
<style type="text/css">
	.st0{fill:#22adb3;}
	.st1{fill:#FFFFFF;}
</style>
<defs>
</defs>
<circle class="st0" cx="23" cy="23" r="23"/>
<g>
	<g>
		<path class="st1" d="M32.1,16.3l-2.5-1.8l-0.9-3l-3.1,0L23,9.7l-2.5,1.9l-3.1,0l-0.9,3l-2.5,1.8l1,3l-1,3l2.5,1.8l0.9,3l3.1,0    l2.5,1.9l2.5-1.9l3.1,0l0.9-3l2.5-1.8l-1-3L32.1,16.3z M23,26.2c-3.9,0-7-3.1-7-7s3.1-7,7-7c3.9,0,7,3.1,7,7S26.9,26.2,23,26.2z"/>
		<path class="st1" d="M23,13.6c-3.1,0-5.6,2.5-5.6,5.6c0,3.1,2.5,5.6,5.6,5.6c3.1,0,5.6-2.5,5.6-5.6C28.6,16.1,26.1,13.6,23,13.6z"/>
	</g>
	<g>
		<polygon class="st1" points="16.7,27.9 15.7,24.5 15.1,24.1 7.5,30.8 12.2,31.5 12.4,36.3 21.2,28.6 20.2,27.8   "/>
		<polygon class="st1" points="30.9,24.1 30.3,24.5 29.3,27.9 25.8,27.8 24.8,28.6 33.6,36.3 33.8,31.5 38.5,30.8   "/>
	</g>
</g>
</svg>