<!-- Generator: Adobe Illustrator 22.1.0, SVG Export Plug-In  -->
<svg version="1.1"
	 xmlns="http://www.w3.org/2000/svg" xmlns:xlink="http://www.w3.org/1999/xlink" xmlns:a="http://ns.adobe.com/AdobeSVGViewerExtensions/3.0/"
	 x="0px" y="0px" width="19.8px" height="22.5px" viewBox="0 0 19.8 22.5" style="enable-background:new 0 0 19.8 22.5;"
	 xml:space="preserve">
<defs>
</defs>
<path d="M15.9,21.2c-1.4,0-2.5-1.1-2.5-2.5s1.1-2.5,2.5-2.5c1.4,0,2.5,1.1,2.5,2.5S17.3,21.2,15.9,21.2 M3.8,13.7
	c-1.4,0-2.5-1.1-2.5-2.5c0-1.4,1.1-2.5,2.5-2.5c1.4,0,2.5,1.1,2.5,2.5C6.4,12.5,5.2,13.7,3.8,13.7 M15.9,1.3c1.4,0,2.5,1.1,2.5,2.5
	c0,1.4-1.1,2.5-2.5,2.5c-1.4,0-2.5-1.1-2.5-2.5C13.4,2.4,14.5,1.3,15.9,1.3 M15.9,14.8c-1.1,0-2,0.4-2.7,1.1l-5.8-3.4
	c0.2-0.5,0.3-1,0.3-1.5c0-0.5-0.1-0.9-0.3-1.4l5.4-3.7c0.7,1,1.8,1.6,3.1,1.6c2.1,0,3.8-1.7,3.8-3.8S18,0,15.9,0
	c-2.1,0-3.8,1.7-3.8,3.8c0,0.4,0.1,0.7,0.1,1.1L6.8,8.6C6.1,7.8,5,7.3,3.8,7.3C1.7,7.3,0,9,0,11.1C0,13.3,1.7,15,3.8,15
	C5,15,6,14.5,6.7,13.7l5.8,3.3c-0.2,0.5-0.4,1.1-0.4,1.6c0,2.1,1.7,3.8,3.8,3.8c2.1,0,3.8-1.7,3.8-3.8C19.8,16.6,18,14.8,15.9,14.8"
	/>
</svg>
