<!-- Generator: Adobe Illustrator 22.0.0, SVG Export Plug-In  -->
<svg version="1.1"
	 xmlns="http://www.w3.org/2000/svg" xmlns:xlink="http://www.w3.org/1999/xlink" xmlns:a="http://ns.adobe.com/AdobeSVGViewerExtensions/3.0/"
	 x="0px" y="0px" width="676.6px" height="189.5px" viewBox="0 0 676.6 189.5" style="enable-background:new 0 0 676.6 189.5;"
	 xml:space="preserve">
<defs>
</defs>
<path d="M20.5,185.9V78H0V49.8h20.5C20.5,16.6,39.6,0,78.8,0v32.4c-16.3,0-19.1,3.6-19.1,17.4h19.9V78H59.7v107.9H20.5z"/>
<path d="M175.1,185.9v-16.6c-8.6,13.8-21.3,20.2-39.6,20.2c-27.4,0-46.5-19.1-46.5-45.6v-94h40.1V135c0,15.2,7.2,22.1,20.7,22.1
	c17.4,0,23.2-11.6,23.2-33.5V49.8H213v136.1H175.1z"/>
<path d="M305.1,91c-1.1-11.1-6.9-17.7-21.6-17.7c-13.8,0-20.2,4.7-20.2,11.9c0,5.8,6.9,10,19.1,13c43.4,10.5,64.2,15.8,64.2,47.6
	c0,25.7-17.4,43.7-61.1,43.7c-40.1,0-64.7-18.5-65.3-47.3h40.9c0,10.8,9.7,18.5,24.6,18.5c13,0,21.9-3.6,21.9-12.4c0-6.9-5-10-18-13
	c-53.1-11.9-64.5-26-64.5-50.1c0-20.5,15.2-39,59.5-39c39.8,0,56.4,16.9,58.1,44.8H305.1z"/>
<path d="M356.2,33.5V0h40.1v33.5H356.2z M356.2,185.9V49.8h40.1v136.1H356.2z"/>
<path d="M403.8,117.8c0-43.2,27.1-71.6,70.8-71.6c43.2,0,70,28.2,70,71.6c0,43.2-27.1,71.6-70,71.6
	C430.1,189.5,403.8,160.2,403.8,117.8z M504.2,117.8c0-26-9.7-37.6-29.6-37.6c-19.9,0-29.6,11.6-29.6,37.6s9.7,38.2,29.6,38.2
	C494.6,156,504.2,143.8,504.2,117.8z"/>
<path d="M636.2,185.9v-84.4c0-17.2-6.4-22.7-20.7-22.7c-15.8,0-23.8,8-23.8,24.9v82.2h-40.1V49.8h38.2v17.1
	c7.7-13.8,21-20.7,40.9-20.7c26.6,0,45.9,16.9,45.9,43.4v96.3H636.2z"/>
</svg>
