<!-- Generator: Adobe Illustrator 22.1.0, SVG Export Plug-In  -->
<svg version="1.1"
	 xmlns="http://www.w3.org/2000/svg" xmlns:xlink="http://www.w3.org/1999/xlink" xmlns:a="http://ns.adobe.com/AdobeSVGViewerExtensions/3.0/"
	 x="0px" y="0px" width="17.5px" height="19.4px" viewBox="0 0 17.5 19.4" style="enable-background:new 0 0 17.5 19.4;"
	 xml:space="preserve">
<style type="text/css">
	.st0{fill:#FFFFFF;}
</style>
<defs>
</defs>
<path class="st0" d="M0.7,19.4v-0.2V19h16.1c0.2,0,0.3-0.1,0.3-0.3V6.1H0.4v12.6c0,0.1,0.1,0.3,0.3,0.3v0.2V19.4
	c-0.4,0-0.7-0.3-0.7-0.7V5.9c0-0.1,0-0.1,0.1-0.2c0,0,0.1-0.1,0.2-0.1h17.1c0.1,0,0.1,0,0.2,0.1c0,0,0.1,0.1,0.1,0.2l0,12.8
	c0,0.4-0.3,0.7-0.7,0.7H0.7z"/>
<path class="st0" d="M12.6,1.3v1.9C12.6,3.7,13,4,13.4,4c0.4,0,0.8-0.4,0.8-0.8V1.3c0-0.5-0.4-0.8-0.8-0.8C13,0.4,12.6,0.8,12.6,1.3
	 M12.2,3.2V1.3c0-0.7,0.5-1.3,1.2-1.3c0.7,0,1.2,0.6,1.2,1.3v1.9c0,0.7-0.5,1.3-1.2,1.3C12.7,4.4,12.2,3.9,12.2,3.2"/>
<path class="st0" d="M3.4,3.2C3.4,3.7,3.7,4,4.1,4c0.4,0,0.8-0.4,0.8-0.8V1.3c0-0.5-0.4-0.8-0.8-0.8c-0.4,0-0.8,0.4-0.8,0.8V3.2z
	 M2.9,3.2V1.3C2.9,0.6,3.5,0,4.1,0c0.7,0,1.2,0.6,1.2,1.3v1.9c0,0.7-0.5,1.3-1.2,1.3C3.5,4.4,2.9,3.9,2.9,3.2"/>
<path class="st0" d="M6.1,8.3v1.6c0,0,0,0.1,0.1,0.1h1.6c0,0,0.1,0,0.1-0.1V8.3c0,0,0-0.1-0.1-0.1L6.1,8.3C6.1,8.3,6.1,8.3,6.1,8.3
	 M6.2,10.4c-0.3,0-0.5-0.2-0.5-0.5V8.3c0-0.3,0.2-0.5,0.5-0.5h1.6C8,7.8,8.3,8,8.3,8.3v1.6c0,0.3-0.2,0.5-0.5,0.5H6.2z"/>
<path class="st0" d="M9.7,8.3v1.6c0,0,0,0.1,0.1,0.1h1.6c0,0,0.1,0,0.1-0.1V8.3c0,0,0-0.1-0.1-0.1L9.7,8.3C9.7,8.3,9.7,8.3,9.7,8.3
	 M9.7,10.4c-0.3,0-0.5-0.2-0.5-0.5V8.3c0-0.3,0.2-0.5,0.5-0.5h1.6c0.3,0,0.5,0.2,0.5,0.5v1.6c0,0.3-0.2,0.5-0.5,0.5H9.7z"/>
<path class="st0" d="M13.3,8.3v1.6c0,0,0,0.1,0.1,0.1h1.6c0,0,0.1,0,0.1-0.1V8.3c0,0,0-0.1-0.1-0.1L13.3,8.3
	C13.3,8.3,13.3,8.3,13.3,8.3 M13.3,10.4c-0.3,0-0.5-0.2-0.5-0.5V8.3c0-0.3,0.2-0.5,0.5-0.5h1.6c0.3,0,0.5,0.2,0.5,0.5v1.6
	c0,0.3-0.2,0.5-0.5,0.5H13.3z"/>
<path class="st0" d="M6.1,11.7v1.6c0,0,0,0.1,0.1,0.1h1.6c0,0,0.1,0,0.1-0.1v-1.6c0,0,0-0.1-0.1-0.1L6.1,11.7
	C6.1,11.6,6.1,11.7,6.1,11.7 M6.2,13.7c-0.3,0-0.5-0.2-0.5-0.5v-1.6c0-0.3,0.2-0.5,0.5-0.5h1.6c0.3,0,0.5,0.2,0.5,0.5v1.6
	c0,0.3-0.2,0.5-0.5,0.5H6.2z"/>
<path class="st0" d="M13.3,11.7v1.6c0,0,0,0.1,0.1,0.1h1.6c0,0,0.1,0,0.1-0.1v-1.6c0,0,0-0.1-0.1-0.1L13.3,11.7
	C13.3,11.6,13.3,11.7,13.3,11.7 M13.3,13.7c-0.3,0-0.5-0.2-0.5-0.5v-1.6c0-0.3,0.2-0.5,0.5-0.5h1.6c0.3,0,0.5,0.2,0.5,0.5v1.6
	c0,0.3-0.2,0.5-0.5,0.5H13.3z"/>
<path class="st0" d="M9.7,11.7v1.6c0,0,0,0.1,0.1,0.1h1.6c0,0,0.1,0,0.1-0.1v-1.6c0,0,0-0.1-0.1-0.1L9.7,11.7
	C9.7,11.6,9.7,11.7,9.7,11.7 M9.7,13.7c-0.3,0-0.5-0.2-0.5-0.5v-1.6c0-0.3,0.2-0.5,0.5-0.5h1.6c0.3,0,0.5,0.2,0.5,0.5v1.6
	c0,0.3-0.2,0.5-0.5,0.5H9.7z"/>
<path class="st0" d="M6.1,15.1v1.6c0,0,0,0.1,0.1,0.1h1.6c0,0,0.1,0,0.1-0.1v-1.6c0,0,0-0.1-0.1-0.1L6.1,15.1
	C6.1,15,6.1,15,6.1,15.1 M6.2,17.1c-0.3,0-0.5-0.2-0.5-0.5v-1.6c0-0.3,0.2-0.5,0.5-0.5h1.6c0.3,0,0.5,0.2,0.5,0.5v1.6
	c0,0.3-0.2,0.5-0.5,0.5H6.2z"/>
<path class="st0" d="M9.7,15.1v1.6c0,0,0,0.1,0.1,0.1h1.6c0,0,0.1,0,0.1-0.1v-1.6c0,0,0-0.1-0.1-0.1L9.7,15.1
	C9.7,15,9.7,15,9.7,15.1 M9.7,17.1c-0.3,0-0.5-0.2-0.5-0.5v-1.6c0-0.3,0.2-0.5,0.5-0.5h1.6c0.3,0,0.5,0.2,0.5,0.5v1.6
	c0,0.3-0.2,0.5-0.5,0.5H9.7z"/>
<path class="st0" d="M2.5,11.7v1.6c0,0,0,0.1,0.1,0.1h1.6c0,0,0.1,0,0.1-0.1v-1.6c0,0,0-0.1-0.1-0.1L2.5,11.7
	C2.6,11.6,2.5,11.7,2.5,11.7 M2.6,13.7c-0.3,0-0.5-0.2-0.5-0.5v-1.6c0-0.3,0.2-0.5,0.5-0.5h1.6c0.3,0,0.5,0.2,0.5,0.5v1.6
	c0,0.3-0.2,0.5-0.5,0.5H2.6z"/>
<path class="st0" d="M2.5,15.1v1.6c0,0,0,0.1,0.1,0.1h1.6c0,0,0.1,0,0.1-0.1v-1.6c0,0,0-0.1-0.1-0.1L2.5,15.1
	C2.6,15,2.5,15,2.5,15.1 M2.6,17.1c-0.3,0-0.5-0.2-0.5-0.5v-1.6c0-0.3,0.2-0.5,0.5-0.5h1.6c0.3,0,0.5,0.2,0.5,0.5v1.6
	c0,0.3-0.2,0.5-0.5,0.5H2.6z"/>
<path class="st0" d="M5.1,2.4C5,2.4,4.9,2.3,4.9,2.2C4.9,2.1,5,2,5.1,2h7.3c0.1,0,0.2,0.1,0.2,0.2c0,0.1-0.1,0.2-0.2,0.2H5.1z"/>
<path class="st0" d="M0.2,6.1c-0.1,0-0.1,0-0.2-0.1C0,6,0,5.9,0,5.9V2.7C0,2.3,0.3,2,0.7,2h2.4c0.1,0,0.2,0.1,0.2,0.2
	c0,0.1-0.1,0.2-0.2,0.2H0.7c-0.1,0-0.3,0.1-0.3,0.3v3h16.6v-3c0-0.1-0.1-0.3-0.3-0.3h-2.4c-0.1,0-0.2-0.1-0.2-0.2
	c0-0.1,0.1-0.2,0.2-0.2h2.4c0.4,0,0.7,0.3,0.7,0.7v3.2c0,0.1,0,0.1-0.1,0.2c0,0-0.1,0.1-0.2,0.1H0.2z"/>
</svg>
