<!-- Generator: Adobe Illustrator 22.1.0, SVG Export Plug-In  -->
<svg version="1.1"
	 xmlns="http://www.w3.org/2000/svg" xmlns:xlink="http://www.w3.org/1999/xlink" xmlns:a="http://ns.adobe.com/AdobeSVGViewerExtensions/3.0/"
	 x="0px" y="0px" width="14.5px" height="13.5px" viewBox="0 0 14.5 13.5" style="enable-background:new 0 0 14.5 13.5;"
	 xml:space="preserve">
<style type="text/css">
	.st0{fill:#22adb3;}
</style>
<defs>
</defs>
<path class="st0" d="M0,7.2c0-1.1,0.1-1.5,0.7-2.1c0.5-0.6,0.8-0.9,1.8-0.9c0.1,0,0.2,0,0.4,0c0.2,0.1,0.4,0.2,0.5,0.4
	C3.6,5.8,3.7,7,3.9,8.1c0.2,0.2,0.3,0.3,0.5,0.3c0.2,0,1.2-1,3.1-2.8c1.9-1.9,3.7-3.9,5.8-5.4C13.7,0.1,13.9,0,14.1,0
	c0.4,0,0.4,0.3,0.4,1.1c0,0.1,0,0.3,0,0.4c0,0.2,0,0.4,0,0.9c-2.3,2.6-5,5.7-8.6,9c-1.6,1.4-2.3,2.2-2.8,2.2c-0.2,0-0.3,0-0.6-0.1
	C1.6,13,1,12.5,0.5,11.9C0.1,9.4,0,7.8,0,7.2z"/>
</svg>
