<!-- Generator: Adobe Illustrator 22.1.0, SVG Export Plug-In  -->
<svg version="1.1"
	 xmlns="http://www.w3.org/2000/svg" xmlns:xlink="http://www.w3.org/1999/xlink" xmlns:a="http://ns.adobe.com/AdobeSVGViewerExtensions/3.0/"
	 x="0px" y="0px" width="18.9px" height="18.7px" viewBox="0 0 18.9 18.7" style="enable-background:new 0 0 18.9 18.7;"
	 xml:space="preserve">
<style type="text/css">
	.st0{fill:none;stroke:#000000;stroke-width:0.595;stroke-miterlimit:10;}
</style>
<defs>
</defs>
<path class="st0" d="M9.3,14.6L5.1,18v-3.4H3.9c-2,0-3.6-1.6-3.6-3.6V3.9c0-2,1.6-3.6,3.6-3.6h11c2,0,3.6,1.6,3.6,3.6V11
	c0,2-1.6,3.6-3.6,3.6H9.3z M4.8,8.5H14v0.7H4.8V8.5z M4.8,5.5H14v0.7H4.8V5.5z M5.9,16.5L9,13.9H15c1.6,0,2.9-1.3,2.9-2.9V3.9
	C17.8,2.3,16.5,1,15,1h-11C2.3,1,1,2.3,1,3.9V11c0,1.6,1.3,2.9,2.9,2.9h2V16.5z"/>
</svg>
