<?xml version="1.0" encoding="UTF-8"?>
<svg width="71px" height="71px" viewBox="0 0 71 71" version="1.1" xmlns="http://www.w3.org/2000/svg" xmlns:xlink="http://www.w3.org/1999/xlink">
    <!-- Generator: Sketch 49.1 (51147) - http://www.bohemiancoding.com/sketch -->
    <title>Slice 1</title>
    <desc>Created with Sketch.</desc>
    <defs></defs>
    <g id="Page-1" stroke="none" stroke-width="1" fill="none" fill-rule="evenodd">
        <g id="dataIco" fill="#10ADB4" fill-rule="nonzero">
            <path d="M35.5,70.604 C25.631,70.604 17.9,55.142 17.9,35.404 C17.9,15.666 25.631,0.204 35.5,0.204 C45.369,0.204 53.1,15.666 53.1,35.404 C53.1,55.142 45.369,70.604 35.5,70.604 M35.5,2.404 C27.152,2.404 20.1,17.516 20.1,35.404 C20.1,53.292 27.152,68.404 35.5,68.404 C43.848,68.404 50.9,53.292 50.9,35.404 C50.9,17.516 43.848,2.404 35.5,2.404" id="Fill-752"></path>
            <path d="M35.5,53.0039 C15.762,53.0039 0.3,45.2739 0.3,35.4039 C0.3,25.5349 15.762,17.8039 35.5,17.8039 C55.238,17.8039 70.7,25.5349 70.7,35.4039 C70.7,45.2739 55.238,53.0039 35.5,53.0039 M35.5,20.0039 C17.612,20.0039 2.5,27.0559 2.5,35.4039 C2.5,43.7519 17.612,50.8039 35.5,50.8039 C53.388,50.8039 68.5,43.7519 68.5,35.4039 C68.5,27.0559 53.388,20.0039 35.5,20.0039" id="Fill-754"></path>
            <path d="M18.8577,63.2969 C15.3777,63.2969 12.6027,62.2869 10.6107,60.2939 C7.1797,56.8629 6.6647,51.0209 9.1617,43.8419 C11.5647,36.9309 16.4997,29.5149 23.0547,22.9589 C32.5837,13.4299 43.7287,7.5109 52.1427,7.5109 C55.6227,7.5109 58.3977,8.5209 60.3897,10.5139 C63.8207,13.9449 64.3357,19.7879 61.8387,26.9649 C59.4357,33.8769 54.5007,41.2939 47.9447,47.8489 C38.4157,57.3779 27.2707,63.2969 18.8577,63.2969 M52.1427,9.7109 C44.4097,9.7109 33.6037,15.5219 24.6107,24.5149 C18.2847,30.8399 13.5357,37.9609 11.2387,44.5659 C9.0347,50.9029 9.3637,55.9369 12.1657,58.7389 C13.7307,60.3029 15.9817,61.0969 18.8577,61.0969 C26.5897,61.0969 37.3967,55.2859 46.3897,46.2939 C52.7147,39.9679 57.4637,32.8469 59.7617,26.2419 C61.9657,19.9039 61.6367,14.8709 58.8347,12.0689 C57.2697,10.5049 55.0177,9.7109 52.1427,9.7109" id="Fill-756"></path>
            <path d="M52.1423,63.2969 C43.7293,63.2969 32.5843,57.3779 23.0553,47.8489 C16.4993,41.2939 11.5643,33.8769 9.1613,26.9649 C6.6643,19.7879 7.1793,13.9449 10.6103,10.5139 C12.5743,8.5489 15.4263,7.5109 18.8573,7.5109 C27.2713,7.5109 38.4163,13.4299 47.9453,22.9589 C54.5003,29.5149 59.4353,36.9309 61.8383,43.8419 C64.3363,51.0209 63.8203,56.8629 60.3893,60.2939 C58.4253,62.2579 55.5733,63.2969 52.1423,63.2969 M18.8573,9.7109 C15.9823,9.7109 13.7303,10.5049 12.1653,12.0689 C9.3633,14.8709 9.0343,19.9039 11.2383,26.2419 C13.5363,32.8469 18.2853,39.9679 24.6103,46.2939 C33.6033,55.2859 44.4103,61.0969 52.1423,61.0969 C55.0183,61.0969 57.2693,60.3029 58.8343,58.7389 C61.6363,55.9369 61.9653,50.9029 59.7613,44.5659 C57.4643,37.9609 52.7153,30.8399 46.3893,24.5149 C37.3963,15.5219 26.5903,9.7109 18.8573,9.7109" id="Fill-758"></path>
            <path d="M35.5,33.2041 C31.127,33.2041 26.7,31.6921 26.7,28.8041 C26.7,25.9151 31.127,24.4041 35.5,24.4041 C39.873,24.4041 44.3,25.9151 44.3,28.8041 C44.3,31.6921 39.873,33.2041 35.5,33.2041 M35.5,26.6041 C31.406,26.6041 28.9,28.0281 28.9,28.8041 C28.9,29.5791 31.406,31.0041 35.5,31.0041 C39.594,31.0041 42.1,29.5791 42.1,28.8041 C42.1,28.0281 39.594,26.6041 35.5,26.6041" id="Fill-760"></path>
            <path d="M35.5,37.604 C31.127,37.604 26.7,36.092 26.7,33.204 L28.9,33.204 C28.9,33.979 31.406,35.404 35.5,35.404 C39.594,35.404 42.1,33.979 42.1,33.204 L44.3,33.204 C44.3,36.092 39.873,37.604 35.5,37.604" id="Fill-762"></path>
            <path d="M35.5,42.0039 C31.127,42.0039 26.7,40.4929 26.7,37.6039 L28.9,37.6039 C28.9,38.3789 31.406,39.8039 35.5,39.8039 C39.594,39.8039 42.1,38.3789 42.1,37.6039 L44.3,37.6039 C44.3,40.4929 39.873,42.0039 35.5,42.0039" id="Fill-764"></path>
            <path d="M35.5,46.4038 C31.127,46.4038 26.7,44.8928 26.7,42.0038 L26.7,28.8038 L28.9,28.8038 L28.9,42.0038 C28.9,42.7788 31.406,44.2038 35.5,44.2038 C39.594,44.2038 42.1,42.7788 42.1,42.0038 L42.1,28.8038 L44.3,28.8038 L44.3,42.0038 C44.3,44.8928 39.873,46.4038 35.5,46.4038" id="Fill-766"></path>
        </g>
    </g>
</svg>