<!-- Generator: Adobe Illustrator 22.1.0, SVG Export Plug-In  -->
<svg version="1.1"
	 xmlns="http://www.w3.org/2000/svg" xmlns:xlink="http://www.w3.org/1999/xlink" xmlns:a="http://ns.adobe.com/AdobeSVGViewerExtensions/3.0/"
	 x="0px" y="0px" width="60px" height="60px" viewBox="0 0 60 60" style="enable-background:new 0 0 60 60;" xml:space="preserve">
<style type="text/css">
	.st0{fill:#22acb2;}
</style>
<defs>
</defs>
<g>
	<g>
		<g>
			<polygon class="st0" points="41.2,46.9 39.4,46.9 39.4,28.8 40.3,27 40.3,10.3 42.2,10.3 42.2,27.4 41.2,29.3 			"/>
		</g>
		<g>
			<g>
				<path class="st0" d="M30.9,3.7h-1.9c0-0.9-0.8-1.9-1.9-1.9c-1,0-1.9,0.9-1.9,1.9h-1.9c0-1.9,1.7-3.7,3.7-3.7
					C29.3,0,30.9,1.9,30.9,3.7z"/>
			</g>
			<g>
				<path class="st0" d="M25.3,7.5h-1.9V3.8c0-1-0.8-1.9-1.9-1.9c-1,0-1.9,0.8-1.9,1.9v3.7h-1.9V3.8c0-2.1,1.7-3.7,3.7-3.7
					c2.1,0,3.7,1.7,3.7,3.7V7.5z"/>
			</g>
			<g>
				<path class="st0" d="M27.2,14.1c-1.3,0-2.4-0.6-3.1-1.7l1.6-1c0.3,0.5,0.9,0.8,1.6,0.8c1,0,1.9-0.9,1.9-1.9h1.9
					C30.9,12.2,29.3,14.1,27.2,14.1z"/>
			</g>
			<g>
				<path class="st0" d="M32.8,14.1c-2.1,0-3.7-1.7-3.7-3.7V3.8c0-2.1,1.7-3.8,3.7-3.8c2.1,0,3.7,1.9,3.7,3.7h-1.9
					c0-0.9-0.8-1.9-1.9-1.9c-1,0-1.9,0.8-1.9,1.9v6.6c0,1,0.8,1.9,1.9,1.9c1,0,1.9-0.9,1.9-1.9h1.9C36.6,12.2,34.9,14.1,32.8,14.1z"
					/>
			</g>
			<g>
				<path class="st0" d="M38.4,14.1c-2.1,0-3.7-1.7-3.7-3.7V3.8c0-2.1,1.7-3.7,3.7-3.7c2.1,0,3.7,1.7,3.7,3.7v6.6
					C42.2,12.4,40.5,14.1,38.4,14.1z M38.4,1.9c-1,0-1.9,0.8-1.9,1.9v6.6c0,1,0.8,1.9,1.9,1.9c1,0,1.9-0.8,1.9-1.9V3.8
					C40.3,2.7,39.5,1.9,38.4,1.9z"/>
			</g>
		</g>
		<g>
			<rect x="36.6" y="28.1" class="st0" width="3.7" height="1.9"/>
		</g>
		<g>
			<rect x="22.5" y="28.1" class="st0" width="3.7" height="1.9"/>
		</g>
		<g>
			<path class="st0" d="M32.8,24.4h-1.9c0-3.7-2.9-6.6-6.6-6.6v-1.9C29,15.9,32.8,19.7,32.8,24.4z"/>
		</g>
		<g>
			<rect x="34.7" y="31.9" class="st0" width="5.6" height="1.9"/>
		</g>
		<g>
			<path class="st0" d="M23.4,43.1h-1.9V29.5L14.1,22V11.3c0-2.6,2.1-4.7,4.7-4.7h5.6c1.6,0,2.8,1.3,2.8,2.8c0,2.8-3.2,4-4.7,4.5v4
				h-1.9v-5.5l0.8-0.2c1-0.2,3.9-1.2,3.9-2.8c0-0.5-0.4-0.9-0.9-0.9h-5.6c-1.6,0-2.8,1.3-2.8,2.8v9.9l7.5,7.5V43.1z"/>
		</g>
		<g>
			<rect x="18.7" y="12.2" class="st0" width="2.8" height="1.9"/>
		</g>
	</g>
	<g>
		<path class="st0" d="M60,50.6c-2.3,0-3.5-1.2-4.4-2.1c-0.9-0.9-1.6-1.6-3.1-1.6c-1.5,0-2.2,0.7-3.1,1.6c-1,1-2.1,2.1-4.4,2.1
			s-3.5-1.2-4.4-2.1c-0.9-0.9-1.6-1.6-3.1-1.6c-1.5,0-2.2,0.7-3.1,1.6c-1,1-2.1,2.1-4.4,2.1c-2.3,0-3.5-1.2-4.4-2.1
			c-0.9-0.9-1.6-1.6-3.1-1.6c-1.5,0-2.2,0.7-3.1,1.6c-1,1-2.1,2.1-4.4,2.1c-2.3,0-3.5-1.2-4.4-2.1c-0.9-0.9-1.6-1.6-3.1-1.6
			s-2.2,0.7-3.1,1.6c-1,1-2.2,2.1-4.4,2.1v-1.9c1.5,0,2.2-0.7,3.1-1.6c1-1,2.2-2.1,4.4-2.1c2.3,0,3.5,1.2,4.4,2.1
			c0.9,0.9,1.6,1.6,3.1,1.6c1.5,0,2.2-0.7,3.1-1.6c1-1,2.1-2.1,4.4-2.1c2.3,0,3.5,1.2,4.4,2.1c0.9,0.9,1.6,1.6,3.1,1.6
			c1.5,0,2.2-0.7,3.1-1.6c1-1,2.1-2.1,4.4-2.1c2.3,0,3.5,1.2,4.4,2.1c0.9,0.9,1.6,1.6,3.1,1.6c1.5,0,2.2-0.7,3.1-1.6
			c1-1,2.1-2.1,4.4-2.1c2.3,0,3.5,1.2,4.4,2.1c0.9,0.9,1.6,1.6,3.1,1.6V50.6z"/>
	</g>
	<g>
		<path class="st0" d="M46.9,60c-2.3,0-3.5-1.2-4.4-2.1c-0.9-0.9-1.6-1.6-3.1-1.6c-1.5,0-2.2,0.7-3.1,1.6c-1,1-2.1,2.1-4.4,2.1
			c-2.3,0-3.5-1.2-4.4-2.1c-0.9-0.9-1.6-1.6-3.1-1.6c-1.5,0-2.2,0.7-3.1,1.6c-1,1-2.1,2.1-4.4,2.1c-2.3,0-3.5-1.2-4.4-2.1
			c-0.9-0.9-1.6-1.6-3.1-1.6v-1.9c2.3,0,3.5,1.2,4.4,2.1c0.9,0.9,1.6,1.6,3.1,1.6c1.5,0,2.2-0.7,3.1-1.6c1-1,2.1-2.1,4.4-2.1
			c2.3,0,3.5,1.2,4.4,2.1c0.9,0.9,1.6,1.6,3.1,1.6c1.5,0,2.2-0.7,3.1-1.6c1-1,2.1-2.1,4.4-2.1c2.3,0,3.5,1.2,4.4,2.1
			c0.9,0.9,1.6,1.6,3.1,1.6c1.5,0,2.2-0.7,3.1-1.6c1-1,2.1-2.1,4.4-2.1v1.9c-1.5,0-2.2,0.7-3.1,1.6C50.3,58.8,49.1,60,46.9,60z"/>
	</g>
	<g>
		<rect x="44.1" y="35.6" class="st0" width="1.9" height="1.9"/>
	</g>
	<g>
		<rect x="44.1" y="39.4" class="st0" width="1.9" height="1.9"/>
	</g>
	<g>
		<rect x="44.1" y="43.1" class="st0" width="1.9" height="1.9"/>
	</g>
	<g>
		<rect x="17.8" y="30" class="st0" width="1.9" height="1.9"/>
	</g>
	<g>
		<rect x="17.8" y="33.7" class="st0" width="1.9" height="1.9"/>
	</g>
	<g>
		<rect x="17.8" y="37.5" class="st0" width="1.9" height="1.9"/>
	</g>
</g>
</svg>
