<?xml version="1.0" encoding="UTF-8"?>
<svg width="24px" height="23px" viewBox="0 0 24 23" version="1.1" xmlns="http://www.w3.org/2000/svg" xmlns:xlink="http://www.w3.org/1999/xlink">
    <!-- Generator: Sketch 49.1 (51147) - http://www.bohemiancoding.com/sketch -->
    <title>Slice 1</title>
    <desc>Created with Sketch.</desc>
    <defs></defs>
    <g id="Page-1" stroke="none" stroke-width="1" fill="none" fill-rule="evenodd">
        <g id="ss" fill="#CD171A" fill-rule="nonzero">
            <path d="M22.1,22.3 L1.6,22.3 C0.7,22.3 0,21.6 0,20.7 L0,15.6 C0,15.2 0.3,14.9 0.7,14.9 C1.1,14.9 1.4,15.2 1.4,15.6 L1.4,20.7 C1.4,20.7 1.4,20.8 1.5,20.8 L22,20.8 C22.1,20.8 22.1,20.8 22.1,20.7 L22.1,15.6 C22.1,15.2 22.4,14.9 22.8,14.9 C23.2,14.9 23.5,15.2 23.5,15.6 L23.5,20.7 C23.7,21.6 23,22.3 22.1,22.3" id="Shape"></path>
            <path d="M11.9,15.2 C11.5,15.2 11.2,14.9 11.2,14.5 L11.2,0.7 C11.2,0.3 11.5,0 11.9,0 C12.3,0 12.6,0.3 12.6,0.7 L12.6,14.4 C12.6,14.9 12.3,15.2 11.9,15.2" id="Shape"></path>
            <path d="M11.9,16.7 C11.7,16.7 11.5,16.6 11.4,16.5 L5,10.1 C4.7,9.8 4.7,9.3 4.9,9 C5.1,8.7 5.7,8.7 6,9 L11.9,14.9 L17.7,9 C18,8.7 18.5,8.7 18.8,9 C19.1,9.3 19.1,9.8 18.8,10.1 L12.4,16.5 C12.3,16.6 12.1,16.7 11.9,16.7" id="Shape"></path>
        </g>
    </g>
</svg>