<!-- Generator: Adobe Illustrator 22.1.0, SVG Export Plug-In  -->
<svg version="1.1"
	 xmlns="http://www.w3.org/2000/svg" xmlns:xlink="http://www.w3.org/1999/xlink" xmlns:a="http://ns.adobe.com/AdobeSVGViewerExtensions/3.0/"
	 x="0px" y="0px" width="46.8px" height="46.8px" viewBox="0 0 46.8 46.8" style="enable-background:new 0 0 46.8 46.8;"
	 xml:space="preserve">
<style type="text/css">
	.st0{fill:#CD171A;}
	.st1{fill:#FFFFFF;}
</style>
<defs>
</defs>
<path class="st0" d="M23.4,46.8c12.9,0,23.4-10.5,23.4-23.4C46.8,10.5,36.3,0,23.4,0C10.5,0,0,10.5,0,23.4
	C0,36.3,10.5,46.8,23.4,46.8"/>
<path class="st1" d="M15.3,21.7v12.2h16.2l0-12.2H15.3z M31.5,33.9v0.8V33.9z M31.5,35.6H15.3c-0.9,0-1.7-0.7-1.7-1.7V21.7
	c0-0.9,0.7-1.7,1.7-1.7h16.2c0.9,0,1.7,0.7,1.7,1.7v12.2C33.2,34.8,32.4,35.6,31.5,35.6"/>
<path class="st1" d="M30.5,11.5c-0.3-0.3-0.9-0.3-1.2,0l-5.9,6H22l-3.9-4.6c-0.3-0.3-0.8-0.4-1.2-0.1c-0.3,0.3-0.4,0.8-0.1,1.2
	l3.4,3.9c-0.1,0.1-0.1,0.3-0.1,0.4c0,0.5,0.4,0.8,0.8,0.8h4.2c0.5,0,0.8-0.4,0.8-0.8c0-0.2-0.1-0.5-0.3-0.6l5-5.1
	C30.9,12.3,30.9,11.8,30.5,11.5"/>
</svg>
