<!-- Generator: Adobe Illustrator 22.1.0, SVG Export Plug-In  -->
<svg version="1.1"
	 xmlns="http://www.w3.org/2000/svg" xmlns:xlink="http://www.w3.org/1999/xlink" xmlns:a="http://ns.adobe.com/AdobeSVGViewerExtensions/3.0/"
	 x="0px" y="0px" width="23.4px" height="22px" viewBox="0 0 23.4 22" style="enable-background:new 0 0 23.4 22;"
	 xml:space="preserve">
<style type="text/css">
	.st0{fill:#FFFFFF;}
</style>
<defs>
</defs>
<path class="st0" d="M21,4.7C16.8-0.3,11.9,0,11.9,0h-0.4c0,0-4.8-0.3-9.1,4.7c-4.4,5.2-2.1,11.9,0.4,15.5c0,0,1.1,2.1,1.6,1.7
	c0.6-0.4,0.4-0.4,0.2-1.2l0,0C6.5,22.4,7.3,22,7.3,22l0.4-0.3c-4-3.8-5.4-9.6-5.4-9.6l-0.7,0.3c-0.1,0.1-0.3,1.1-0.1,2.4
	c0,0.1,0,0.1,0,0.2c-0.1-0.3-0.2-0.6-0.2-0.8c0-1-1.7-4.6,2.9-10.2c0,0,0.1,0.5,0.7,0.1C5.5,3.7,8.5,2,11.7,2h0.1
	c3.2,0,6.2,1.7,6.8,2.1c0.6,0.5,0.7-0.1,0.7-0.1c4.6,5.6,2.9,9.2,2.9,10.2c0,0.2-0.1,0.4-0.2,0.8c0-0.1,0-0.1,0-0.2
	c0.2-1.3,0-2.3-0.1-2.4l-0.6-0.4c0,0-1.5,5.8-5.5,9.6l0.4,0.3c0,0,0.8,0.4,2.6-1.2l0,0c-0.2,0.8-0.3,0.8,0.2,1.2
	c0.6,0.4,1.6-1.7,1.6-1.7C23.1,16.6,25.3,9.9,21,4.7 M18.7,11.6c-1.9,2-5.4,8.5-4.7,9.1c0.7,1,1.2,0.8,1.2,0.8s3.5-3.5,5.4-9.6
	C20.7,11.8,19.9,10.3,18.7,11.6 M2.8,11.8c1.9,6.1,5.4,9.6,5.4,9.6s0.5,0.2,1.2-0.8c0.7-0.5-2.8-7.1-4.7-9.1
	C3.5,10.3,2.8,11.8,2.8,11.8"/>
</svg>
