<!-- Generator: Adobe Illustrator 22.1.0, SVG Export Plug-In  -->
<svg version="1.1"
	 xmlns="http://www.w3.org/2000/svg" xmlns:xlink="http://www.w3.org/1999/xlink" xmlns:a="http://ns.adobe.com/AdobeSVGViewerExtensions/3.0/"
	 x="0px" y="0px" width="19.3px" height="19px" viewBox="0 0 19.3 19" style="enable-background:new 0 0 19.3 19;"
	 xml:space="preserve">
<defs>
</defs>
<path d="M0.3,6.3h4V19h-4V6.3z M2.3,0c1.3,0,2.3,1,2.3,2.3c0,1.3-1,2.3-2.3,2.3C1,4.6,0,3.5,0,2.3C0,1,1,0,2.3,0"/>
<path d="M6.8,6.3h3.8V8h0.1c0.5-1,1.8-2,3.8-2c4.1,0,4.8,2.6,4.8,6V19h-4v-6.2c0-1.5,0-3.4-2.1-3.4c-2.1,0-2.4,1.6-2.4,3.2V19h-4
	V6.3z"/>
</svg>
