<!-- Generator: Adobe Illustrator 22.1.0, SVG Export Plug-In  -->
<svg version="1.1"
	 xmlns="http://www.w3.org/2000/svg" xmlns:xlink="http://www.w3.org/1999/xlink" xmlns:a="http://ns.adobe.com/AdobeSVGViewerExtensions/3.0/"
	 x="0px" y="0px" width="60px" height="59px" viewBox="0 0 60 59" style="enable-background:new 0 0 60 59;" xml:space="preserve">
<style type="text/css">
	.st0{fill:none;stroke:#1a9fdf;stroke-width:2;stroke-miterlimit:10;}
	.st1{fill:#1a9fdf;}
</style>
<defs>
</defs>
<g>
	<g>
		<path class="st0" d="M19.4,3.7C9.3,3.7,1,11.9,1,22.1c0,12,8.3,12,8.3,22.1h20.3c0-10.1,8.3-10.1,8.3-22.1
			C37.9,11.9,29.6,3.7,19.4,3.7z"/>
	</g>
	<g>
		<g>
			<rect x="24" y="19.4" class="st1" width="1.8" height="1.8"/>
		</g>
		<g>
			<rect x="27.7" y="23" class="st1" width="1.8" height="1.8"/>
		</g>
		<g>
			<rect x="20.4" y="19.4" class="st1" width="1.8" height="1.8"/>
		</g>
		<g>
			<rect x="27.7" y="19.4" class="st1" width="1.8" height="1.8"/>
		</g>
		<g>
			<rect x="27.7" y="26.7" class="st1" width="1.8" height="1.8"/>
		</g>
		<g>
			<rect x="13" y="23" class="st1" width="1.8" height="1.8"/>
		</g>
		<g>
			<rect x="9.3" y="23" class="st1" width="1.8" height="1.8"/>
		</g>
		<g>
			<rect x="16.7" y="23" class="st1" width="1.8" height="1.8"/>
		</g>
		<g>
			<rect x="13" y="26.7" class="st1" width="1.8" height="1.8"/>
		</g>
		<g>
			<rect x="9.3" y="26.7" class="st1" width="1.8" height="1.8"/>
		</g>
		<g>
			<rect x="9.3" y="19.4" class="st1" width="1.8" height="1.8"/>
		</g>
		<g>
			<rect x="24" y="15.7" class="st1" width="1.8" height="1.8"/>
		</g>
		<g>
			<rect x="20.4" y="15.7" class="st1" width="1.8" height="1.8"/>
		</g>
		<g>
			<rect x="27.7" y="15.7" class="st1" width="1.8" height="1.8"/>
		</g>
		<g>
			<rect x="9.3" y="15.7" class="st1" width="1.8" height="1.8"/>
		</g>
		<g>
			<rect x="24" y="12" class="st1" width="1.8" height="1.8"/>
		</g>
		<g>
			<rect x="20.4" y="12" class="st1" width="1.8" height="1.8"/>
		</g>
		<g>
			<rect x="13" y="12" class="st1" width="1.8" height="1.8"/>
		</g>
		<g>
			<rect x="16.7" y="12" class="st1" width="1.8" height="1.8"/>
		</g>
		<g>
			<rect x="24" y="30.4" class="st1" width="1.8" height="1.8"/>
		</g>
		<g>
			<rect x="20.4" y="30.4" class="st1" width="1.8" height="1.8"/>
		</g>
		<g>
			<rect x="13" y="30.4" class="st1" width="1.8" height="1.8"/>
		</g>
		<g>
			<rect x="16.7" y="30.4" class="st1" width="1.8" height="1.8"/>
		</g>
		<g>
			<rect x="16.7" y="26.7" class="st1" width="1.8" height="1.8"/>
		</g>
		<g>
			<path class="st1" d="M18.5,21.2H13v-5.5h5.5V21.2z M14.8,19.4h1.8v-1.8h-1.8V19.4z"/>
		</g>
		<g>
			<path class="st1" d="M25.9,28.6h-5.5V23h5.5V28.6z M22.2,26.7H24v-1.8h-1.8V26.7z"/>
		</g>
	</g>
	<g>
		<g>
			<rect x="9.3" y="53.5" class="st1" width="5.5" height="1.8"/>
		</g>
		<g>
			<rect x="16.7" y="53.5" class="st1" width="12.9" height="1.8"/>
		</g>
		<g>
			<rect x="16.7" y="49.8" class="st1" width="12.9" height="1.8"/>
		</g>
		<g>
			<rect x="9.3" y="49.8" class="st1" width="5.5" height="1.8"/>
		</g>
		<g>
			<rect x="11.1" y="47" class="st1" width="1.8" height="11.1"/>
		</g>
		<g>
			<rect x="25.9" y="47" class="st1" width="1.8" height="11.1"/>
		</g>
		<g>
			<rect x="9.3" y="46.1" class="st1" width="20.3" height="1.8"/>
		</g>
		<g>
			<rect x="18.5" y="35" class="st1" width="1.8" height="12"/>
		</g>
		<g>
			<rect x="16.7" y="34.1" class="st1" width="5.5" height="1.8"/>
		</g>
		<g>
			<rect x="16.7" y="57.2" class="st1" width="43.3" height="1.8"/>
		</g>
		<g>
			<rect x="1" y="57.2" class="st1" width="13.8" height="1.8"/>
		</g>
		<g>
			<rect x="43.4" y="48.9" class="st1" width="1.8" height="9.2"/>
		</g>
		<g>
			<path class="st1" d="M54.5,49.8H39.7v-1.8h12.9V33.2h5.5v-0.8l-5.5-14.6c-0.1-0.1-6.4-16-21.3-16V0c16.1,0,22.9,17,23,17.2
				L60,32.1V35h-5.5V49.8z"/>
		</g>
		<g>
			<rect x="27.7" class="st1" width="3.7" height="1.8"/>
		</g>
		<g>
			<rect x="24" class="st1" width="1.8" height="1.8"/>
		</g>
		<g>
			<rect x="20.4" class="st1" width="1.8" height="1.8"/>
		</g>
	</g>
</g>
</svg>
