<!-- Generator: Adobe Illustrator 22.1.0, SVG Export Plug-In  -->
<svg version="1.1"
	 xmlns="http://www.w3.org/2000/svg" xmlns:xlink="http://www.w3.org/1999/xlink" xmlns:a="http://ns.adobe.com/AdobeSVGViewerExtensions/3.0/"
	 x="0px" y="0px" width="58px" height="64px" viewBox="0 0 58 64" style="enable-background:new 0 0 58 64;" xml:space="preserve">
<style type="text/css">
	.st0{fill:#FFFFFF;}
	.st1{fill:#FFFFFF;stroke:#363F40;stroke-width:2;stroke-linejoin:round;stroke-miterlimit:10;}
</style>
<defs>
</defs>
<g>
	<g>
		<g>
			<path class="st0" d="M39,64h-2V42c0-4.4-3.6-8-8-8s-8,3.6-8,8v22h-2V42c0-5.5,4.5-10,10-10s10,4.5,10,10V64z"/>
		</g>
		<g>
			<path class="st0" d="M29,48c-3.3,0-6-2.7-6-6h2c0,2.2,1.8,4,4,4c2.2,0,4-1.8,4-4h2C35,45.3,32.3,48,29,48z"/>
		</g>
		<g>
			<rect x="25" y="54" class="st0" width="8" height="2"/>
		</g>
		<g>
			<rect x="25" y="58" class="st0" width="8" height="2"/>
		</g>
		<g>
			<rect x="8" y="14" class="st0" width="18" height="2"/>
		</g>
		<g>
			<rect x="28" y="14" class="st0" width="2" height="2"/>
		</g>
		<g>
			<rect x="32" y="12" class="st0" width="2" height="18"/>
		</g>
		<g>
			<rect x="18" y="4" class="st0" width="2" height="11"/>
		</g>
		<g>
			<path class="st0" d="M30,12h-2V9c0-0.6,0.4-1,1-1h13v2H30V12z"/>
		</g>
		<g>
			<rect x="28" y="22" class="st0" width="2" height="8"/>
		</g>
		<g>
			<path class="st0" d="M45,20h-9v-2h8V4h2v15C46,19.6,45.6,20,45,20z"/>
		</g>
		<g>
			<path class="st0" d="M26,30h-2V19c0-0.6,0.4-1,1-1h5v2h-4V30z"/>
		</g>
		<g>
			<rect x="44" class="st0" width="2" height="2"/>
		</g>
		<g>
			<rect x="18" class="st0" width="2" height="2"/>
		</g>
		<g>
			<rect x="48" y="8" class="st0" width="2" height="2"/>
		</g>
		<g>
			<rect x="52" y="8" class="st0" width="2" height="2"/>
		</g>
		<g>
			<rect x="56" y="8" class="st0" width="2" height="2"/>
		</g>
		<g>
			<rect x="54" y="24" class="st0" width="2" height="2"/>
		</g>
		<g>
			<rect x="4" y="14" class="st0" width="2" height="2"/>
		</g>
		<g>
			<rect y="14" class="st0" width="2" height="2"/>
		</g>
		<g>
			<rect x="2" y="4" class="st0" width="2" height="2"/>
		</g>
		<g>
			<rect x="10" class="st0" width="2" height="2"/>
		</g>
		<g>
			<path class="st1" d="M21,32"/>
		</g>
		<g>
			<path class="st0" d="M22,30h-2v-6h-9c-0.6,0-1-0.4-1-1v-5h2v4h9c0.6,0,1,0.4,1,1V30z"/>
		</g>
		<g>
			<path class="st0" d="M12,12h-2V6H6V4h5c0.6,0,1,0.4,1,1V12z"/>
		</g>
		<g>
			<path class="st0" d="M38,30h-2v-5c0-0.6,0.4-1,1-1h15v2H38V30z"/>
		</g>
		<g>
			<rect x="20" y="18" class="st0" width="2" height="2"/>
		</g>
		<g>
			<rect x="16" y="18" class="st0" width="2" height="2"/>
		</g>
		<g>
			<path class="st0" d="M34,6h-2V2H22V0h11c0.6,0,1,0.4,1,1V6z"/>
		</g>
		<g>
			<path class="st0" d="M50,22h-2v-3c0-0.6,0.4-1,1-1h7v2h-6V22z"/>
		</g>
		<g>
			<rect x="41" y="38" class="st0" width="2" height="2"/>
		</g>
		<g>
			<rect x="41" y="42" class="st0" width="2" height="2"/>
		</g>
		<g>
			<rect x="41" y="46" class="st0" width="2" height="2"/>
		</g>
		<g>
			<rect x="15" y="38" class="st0" width="2" height="2"/>
		</g>
		<g>
			<rect x="15" y="42" class="st0" width="2" height="2"/>
		</g>
		<g>
			<rect x="15" y="46" class="st0" width="2" height="2"/>
		</g>
		<g>
			<rect x="10" y="26" class="st0" width="8" height="2"/>
		</g>
		<g>
			<rect x="6" y="26" class="st0" width="2" height="2"/>
		</g>
		<g>
			<path class="st0" d="M17,60h-6c-2.8,0-5-2.2-5-5V30h2v25c0,1.7,1.3,3,3,3h6V60z"/>
		</g>
		<g>
			<path class="st0" d="M47,60h-6v-2h6c1.7,0,3-1.3,3-3V30h2v25C52,57.8,49.8,60,47,60z"/>
		</g>
		<g>
			<rect x="23" y="40" class="st0" width="2" height="2"/>
		</g>
		<g>
			<rect x="33" y="40" class="st0" width="2" height="2"/>
		</g>
	</g>
</g>
</svg>
