<?xml version="1.0" encoding="UTF-8"?>
<svg width="47px" height="47px" viewBox="0 0 47 47" version="1.1" xmlns="http://www.w3.org/2000/svg" xmlns:xlink="http://www.w3.org/1999/xlink">
    <!-- Generator: Sketch 49.1 (51147) - http://www.bohemiancoding.com/sketch -->
    <title>Slice 1</title>
    <desc>Created with Sketch.</desc>
    <defs></defs>
    <g id="Page-1" stroke="none" stroke-width="1" fill="none" fill-rule="evenodd">
        <path d="M23.4,46.8 C36.3,46.8 46.8,36.3 46.8,23.4 C46.8,10.5 36.3,0 23.4,0 C10.5,0 0,10.5 0,23.4 C0,36.3 10.5,46.8 23.4,46.8" id="Shape" fill="#CD171A" fill-rule="nonzero"></path>
        <path d="M12.5,15.5 L34.5,15.5 L34.5,28.2 L12.5,28.2 L12.5,15.5 Z M11.6,29.7 L35.4,29.7 C35.7,29.7 36,29.4 36,29.1 L36,14.6 C36,14.3 35.7,14 35.4,14 L11.6,14 C11.3,14 11,14.3 11,14.6 L11,29.1 C11,29.4 11.2,29.7 11.6,29.7 Z" id="Shape" fill="#FFFFFF" fill-rule="nonzero"></path>
        <path d="M38.7,30 L28.4,30 C28.4,30.2 28.2,30.4 28,30.4 L19.7,30.4 C19.5,30.4 19.3,30.2 19.3,30 L9,30 C9,30.1 9,30.1 9,30.1 L9,30.6 C9,31.3 9.6,32 10.4,32 L37.4,32 C38.1,32 38.8,31.4 38.8,30.6 L38.8,30.1 C38.7,30.1 38.7,30.1 38.7,30" id="Shape" fill="#FFFFFF" fill-rule="nonzero"></path>
        <polygon id="Shape" fill="#FFFFFF" fill-rule="nonzero" points="23 18 25 25.6 26.3 23.2 28.7 25.6 30.6 23.7 28.2 21.3 30.6 20"></polygon>
    </g>
</svg>