<!-- Generator: Adobe Illustrator 22.1.0, SVG Export Plug-In  -->
<svg version="1.1"
	 xmlns="http://www.w3.org/2000/svg" xmlns:xlink="http://www.w3.org/1999/xlink" xmlns:a="http://ns.adobe.com/AdobeSVGViewerExtensions/3.0/"
	 x="0px" y="0px" width="14.8px" height="20.1px" viewBox="0 0 14.8 20.1" style="enable-background:new 0 0 14.8 20.1;"
	 xml:space="preserve">
<style type="text/css">
	.st0{fill:#FFFFFF;}
</style>
<defs>
</defs>
<path class="st0" d="M7.4,11.4c-2.2,0-4-1.8-4-4c0-2.2,1.8-4,4-4c2.2,0,4,1.8,4,4C11.4,9.6,9.6,11.4,7.4,11.4 M7.4,2.9
	c-2.5,0-4.5,2-4.5,4.5c0,2.5,2,4.5,4.5,4.5c2.5,0,4.5-2,4.5-4.5C11.9,4.9,9.8,2.9,7.4,2.9 M9.2,16.6C8.6,17.3,8,18.1,7.4,19
	c-0.5-0.7-1-1.3-1.4-1.9c-2.9-3.8-5.1-6.8-5.1-9.7c0-3.6,2.9-6.5,6.5-6.5c3.6,0,6.5,2.9,6.5,6.5C13.9,10.2,11.8,13,9.2,16.6 M7.4,0
	C3.3,0,0,3.3,0,7.4c0,3.2,2.3,6.3,5.3,10.2C5.9,18.3,6.4,19.1,7,20c0.1,0.1,0.2,0.2,0.3,0.2h0c0.1,0,0.3-0.1,0.3-0.2
	c0.7-1,1.4-2,2.1-2.9c2.8-3.7,4.9-6.6,4.9-9.7C14.8,3.3,11.5,0,7.4,0"/>
</svg>
