<!-- Generator: Adobe Illustrator 22.1.0, SVG Export Plug-In  -->
<svg version="1.1"
	 xmlns="http://www.w3.org/2000/svg" xmlns:xlink="http://www.w3.org/1999/xlink" xmlns:a="http://ns.adobe.com/AdobeSVGViewerExtensions/3.0/"
	 x="0px" y="0px" width="31.1px" height="20.3px" viewBox="0 0 31.1 20.3" style="enable-background:new 0 0 31.1 20.3;"
	 xml:space="preserve">
<style type="text/css">
	.st0{fill:#F1F1F1;}
</style>
<defs>
</defs>
<g>
	<path d="M31.1,18.7c0,0.9-0.7,1.7-1.7,1.7H1.7c-0.9,0-1.7-0.7-1.7-1.7H31.1z M12.7,19.2c0,0.3,0.2,0.5,0.5,0.5h4.6
		c0.3,0,0.5-0.2,0.5-0.5H12.7z"/>
	<path d="M3.5,0h24.1C28.4,0,29,0.6,29,1.5v15.3c0,0.8-0.6,1.4-1.4,1.5H3.5c-0.8,0-1.4-0.6-1.4-1.5V1.5C2.1,0.6,2.7,0,3.5,0z
		 M15.9,0.8c0-0.2-0.1-0.3-0.3-0.3c-0.2,0-0.3,0.1-0.3,0.3c0,0.2,0.1,0.3,0.3,0.3C15.7,1.1,15.9,0.9,15.9,0.8z"/>
	<rect x="3.6" y="1.5" class="st0" width="23.9" height="15.1"/>
</g>
</svg>
