<!-- Generator: Adobe Illustrator 22.1.0, SVG Export Plug-In  -->
<svg version="1.1"
	 xmlns="http://www.w3.org/2000/svg" xmlns:xlink="http://www.w3.org/1999/xlink" xmlns:a="http://ns.adobe.com/AdobeSVGViewerExtensions/3.0/"
	 x="0px" y="0px" width="52px" height="55.5px" viewBox="0 0 52 55.5" style="enable-background:new 0 0 52 55.5;"
	 xml:space="preserve">
<style type="text/css">
	.st0{fill:#1a9fdf;}
</style>
<defs>
</defs>
<g>
	<g>
		<g>
			<polygon class="st0" points="52,48.5 41.6,48.5 41.6,46.8 50.3,46.8 50.3,1.7 1.7,1.7 1.7,46.8 10.4,46.8 10.4,48.5 0,48.5 0,0 
				52,0 			"/>
		</g>
		<g>
			<rect x="0.9" y="6.9" class="st0" width="50.3" height="1.7"/>
		</g>
		<g>
			<rect x="3.5" y="3.5" class="st0" width="1.7" height="1.7"/>
		</g>
		<g>
			<rect x="6.9" y="3.5" class="st0" width="1.7" height="1.7"/>
		</g>
		<g>
			<rect x="10.4" y="3.5" class="st0" width="1.7" height="1.7"/>
		</g>
		<g>
			<rect x="13.9" y="0.9" class="st0" width="1.7" height="6.9"/>
		</g>
		<g>
			<rect x="17.3" y="3.5" class="st0" width="31.2" height="1.7"/>
		</g>
		<g>
			<polygon class="st0" points="48.5,45.1 43.3,45.1 43.3,43.3 46.8,43.3 46.8,12.1 5.2,12.1 5.2,43.3 8.7,43.3 8.7,45.1 3.5,45.1 
				3.5,10.4 48.5,10.4 			"/>
		</g>
	</g>
	<g>
		<g>
			<path class="st0" d="M26,55.5c-0.7,0-1.4-0.1-2.2-0.2c-0.3,0-0.5-0.2-0.6-0.5c-0.1-0.2-0.1-0.5,0-0.8c0.2-0.4,0.3-0.8,0.3-1.2
				c0-1.4-1.2-2.6-2.6-2.6c-1.1,0-2.1,0.7-2.5,1.9c-0.1,0.3-0.3,0.5-0.5,0.6c-0.3,0.1-0.6,0-0.8-0.1c-1.4-1-2.7-2.3-3.7-3.7
				c-0.2-0.2-0.2-0.5-0.1-0.8s0.3-0.5,0.6-0.5c1.1-0.3,1.9-1.3,1.9-2.5c0-1.4-1.2-2.6-2.6-2.6c-0.4,0-0.8,0.1-1.2,0.3
				c-0.2,0.1-0.5,0.1-0.8,0c-0.2-0.1-0.4-0.4-0.5-0.6c-0.1-0.8-0.2-1.6-0.2-2.2c0-0.7,0.1-1.4,0.2-2.2c0-0.3,0.2-0.5,0.5-0.6
				c0.2-0.1,0.5-0.1,0.8,0c0.4,0.2,0.8,0.3,1.2,0.3c1.4,0,2.6-1.2,2.6-2.6c0-1.1-0.7-2.1-1.9-2.5c-0.3-0.1-0.5-0.3-0.6-0.5
				s0-0.6,0.1-0.8c1-1.4,2.3-2.7,3.7-3.7c0.2-0.2,0.5-0.2,0.8-0.1c0.3,0.1,0.5,0.3,0.5,0.6c0.3,1.1,1.3,1.9,2.5,1.9
				c1.4,0,2.6-1.2,2.6-2.6c0-0.4-0.1-0.8-0.3-1.2c-0.1-0.2-0.1-0.5,0-0.8c0.1-0.2,0.4-0.4,0.6-0.5c1.7-0.2,2.8-0.2,4.5,0
				c0.3,0,0.5,0.2,0.6,0.5c0.1,0.2,0.1,0.5,0,0.8c-0.2,0.4-0.3,0.8-0.3,1.2c0,1.4,1.2,2.6,2.6,2.6c1.1,0,2.1-0.7,2.5-1.9
				c0.1-0.3,0.3-0.5,0.5-0.6c0.3-0.1,0.6,0,0.8,0.1c1.4,1,2.7,2.3,3.7,3.7c0.2,0.2,0.2,0.5,0.1,0.8c-0.1,0.3-0.3,0.5-0.6,0.5
				c-1.1,0.3-1.9,1.3-1.9,2.5c0,1.4,1.2,2.6,2.6,2.6c0.4,0,0.8-0.1,1.2-0.3c0.2-0.1,0.5-0.1,0.8,0c0.2,0.1,0.4,0.4,0.5,0.6
				c0.1,0.8,0.2,1.6,0.2,2.2c0,0.7-0.1,1.4-0.2,2.2c0,0.3-0.2,0.5-0.5,0.6c-0.2,0.1-0.5,0.1-0.8,0c-0.4-0.2-0.8-0.3-1.2-0.3
				c-1.4,0-2.6,1.2-2.6,2.6c0,1.1,0.7,2.1,1.9,2.5c0.3,0.1,0.5,0.3,0.6,0.5c0.1,0.3,0,0.6-0.1,0.8c-1,1.4-2.3,2.7-3.7,3.7
				c-0.2,0.2-0.5,0.2-0.8,0.1c-0.3-0.1-0.5-0.3-0.5-0.6c-0.3-1.1-1.3-1.9-2.5-1.9c-1.4,0-2.6,1.2-2.6,2.6c0,0.4,0.1,0.8,0.3,1.2
				c0.1,0.2,0.1,0.5,0,0.8c-0.1,0.2-0.4,0.4-0.6,0.5C27.4,55.4,26.7,55.5,26,55.5z M25,53.7c0.7,0.1,1.2,0.1,1.9,0
				c-0.1-0.3-0.1-0.5-0.1-0.8c0-2.4,1.9-4.3,4.3-4.3c1.5,0,2.9,0.8,3.6,2c0.7-0.6,1.3-1.2,1.8-1.8c-1.2-0.8-2-2.1-2-3.6
				c0-2.4,1.9-4.3,4.3-4.3c0.3,0,0.6,0,0.8,0.1c0-0.3,0-0.6,0-1c0-0.3,0-0.6,0-1C39.6,39,39.3,39,39,39c-2.4,0-4.3-1.9-4.3-4.3
				c0-1.5,0.8-2.9,2-3.6c-0.6-0.7-1.2-1.3-1.8-1.8c-0.8,1.2-2.1,2-3.6,2c-2.4,0-4.3-1.9-4.3-4.3c0-0.3,0-0.6,0.1-0.8
				C26.3,26,25.7,26,25,26c0.1,0.3,0.1,0.5,0.1,0.8c0,2.4-1.9,4.3-4.3,4.3c-1.5,0-2.9-0.8-3.6-2c-0.7,0.6-1.3,1.2-1.8,1.8
				c1.2,0.8,2,2.1,2,3.6c0,2.4-1.9,4.3-4.3,4.3c-0.3,0-0.6,0-0.8-0.1c0,0.3,0,0.6,0,1c0,0.3,0,0.6,0,1c0.3-0.1,0.5-0.1,0.8-0.1
				c2.4,0,4.3,1.9,4.3,4.3c0,1.5-0.8,2.9-2,3.6c0.6,0.7,1.2,1.3,1.8,1.8c0.8-1.2,2.1-2,3.6-2c2.4,0,4.3,1.9,4.3,4.3
				C25.1,53.1,25.1,53.4,25,53.7z"/>
		</g>
		<g>
			<path class="st0" d="M26,43.3c-1.9,0-3.5-1.6-3.5-3.5c0-1.9,1.6-3.5,3.5-3.5c1.9,0,3.5,1.6,3.5,3.5C29.5,41.8,27.9,43.3,26,43.3z
				 M26,38.1c-1,0-1.7,0.8-1.7,1.7c0,1,0.8,1.7,1.7,1.7c1,0,1.7-0.8,1.7-1.7C27.7,38.9,27,38.1,26,38.1z"/>
		</g>
		<g>
			<path class="st0" d="M26,47.7c-4.3,0-7.8-3.5-7.8-7.8s3.5-7.8,7.8-7.8c4.3,0,7.8,3.5,7.8,7.8S30.3,47.7,26,47.7z M26,33.8
				c-3.3,0-6.1,2.7-6.1,6.1c0,3.3,2.7,6.1,6.1,6.1c3.3,0,6.1-2.7,6.1-6.1C32.1,36.5,29.3,33.8,26,33.8z"/>
		</g>
	</g>
	<g>
		<rect x="6.9" y="13.9" class="st0" width="8.7" height="1.7"/>
	</g>
	<g>
		<rect x="6.9" y="17.3" class="st0" width="12.1" height="1.7"/>
	</g>
	<g>
		<rect x="6.9" y="20.8" class="st0" width="5.2" height="1.7"/>
	</g>
	<g>
		<rect x="20.8" y="17.3" class="st0" width="6.9" height="1.7"/>
	</g>
	<g>
		<rect x="29.5" y="17.3" class="st0" width="6.9" height="1.7"/>
	</g>
	<g>
		<rect x="13.9" y="20.8" class="st0" width="6.9" height="1.7"/>
	</g>
	<g>
		<rect x="6.9" y="25.1" class="st0" width="6.9" height="1.7"/>
	</g>
	<g>
		<rect x="17.3" y="13.9" class="st0" width="6.9" height="1.7"/>
	</g>
</g>
</svg>
