<!-- Generator: Adobe Illustrator 22.1.0, SVG Export Plug-In  -->
<svg version="1.1"
	 xmlns="http://www.w3.org/2000/svg" xmlns:xlink="http://www.w3.org/1999/xlink" xmlns:a="http://ns.adobe.com/AdobeSVGViewerExtensions/3.0/"
	 x="0px" y="0px" width="64px" height="64px" viewBox="0 0 64 64" style="enable-background:new 0 0 64 64;" xml:space="preserve">
<style type="text/css">
	.st0{fill:#FFFFFF;}
</style>
<defs>
</defs>
<g>
	<g>
		<path class="st0" d="M32,64C14.4,64,0,49.6,0,32h2c0,16.5,13.5,30,30,30s30-13.5,30-30S48.5,2,32,2c-8,0-15.5,3.1-21.2,8.8
			L9.4,9.4C15.4,3.3,23.5,0,32,0c17.6,0,32,14.4,32,32S49.6,64,32,64z"/>
	</g>
	<g>
		<path class="st0" d="M32,60c-9.9,0-18.8-5-23.9-13.5l1.7-1C14.5,53.3,22.8,58,32,58c14.3,0,26-11.7,26-26S46.3,6,32,6
			c-6.9,0-13.5,2.7-18.4,7.6l-1.4-1.4C17.5,6.9,24.5,4,32,4c15.4,0,28,12.6,28,28S47.4,60,32,60z"/>
	</g>
	<g>
		<path class="st0" d="M38.3,51l-0.6-1.9C45.1,46.6,50,39.8,50,32c0-9.9-8.1-18-18-18c-4.8,0-9.3,1.9-12.7,5.3l-1.4-1.4
			C21.6,14.1,26.7,12,32,12c11,0,20,9,20,20C52,40.6,46.5,48.3,38.3,51z"/>
	</g>
	<g>
		<path class="st0" d="M47.1,37.3l-1.9-0.7c0.5-1.5,0.8-3.1,0.8-4.7c0-7.7-6.3-14-14-14c-3.7,0-7.3,1.5-9.9,4.1l-1.4-1.4
			c3-3,7-4.7,11.3-4.7c8.8,0,16,7.2,16,16C48,33.8,47.7,35.6,47.1,37.3z"/>
	</g>
	<g>
		<rect x="4" y="32" class="st0" width="2" height="2"/>
	</g>
	<g>
		<rect x="8" y="32" class="st0" width="2" height="2"/>
	</g>
	<g>
		<rect x="12" y="32" class="st0" width="2" height="2"/>
	</g>
	<g>
		<rect x="16" y="32" class="st0" width="2" height="2"/>
	</g>
	<g>
		<rect x="20" y="32" class="st0" width="2" height="2"/>
	</g>
	<g>
		<path class="st0" d="M40.4,26.5c-1.9-2.8-5-4.5-8.4-4.5c-2.7,0-5.2,1-7.1,2.9l-1.4-1.4c2.3-2.3,5.3-3.5,8.5-3.5
			c4.1,0,7.8,2,10.1,5.5L40.4,26.5z"/>
	</g>
	<g>
		<path class="st0" d="M32,56c-2.5,0-5-0.4-7.3-1.1l0.6-1.9c2.2,0.7,4.4,1,6.7,1c12.1,0,22-9.9,22-22s-9.9-22-22-22
			c-5.9,0-11.4,2.3-15.6,6.4L15,15c4.5-4.5,10.6-7,17-7c13.2,0,24,10.8,24,24S45.2,56,32,56z"/>
	</g>
</g>
</svg>
