<!-- Generator: Adobe Illustrator 22.1.0, SVG Export Plug-In  -->
<svg version="1.1"
	 xmlns="http://www.w3.org/2000/svg" xmlns:xlink="http://www.w3.org/1999/xlink" xmlns:a="http://ns.adobe.com/AdobeSVGViewerExtensions/3.0/"
	 x="0px" y="0px" width="12.9px" height="12px" viewBox="0 0 12.9 12" style="enable-background:new 0 0 12.9 12;"
	 xml:space="preserve">
<style type="text/css">
	.st0{fill:#cb1b23;}
</style>
<defs>
</defs>
<path class="st0" d="M0,6.4c0-1,0.1-1.3,0.6-1.9C1.1,4,1.4,3.7,2.2,3.7c0.1,0,0.2,0,0.3,0C2.8,3.8,2.9,3.9,3,4.1
	c0.2,1.1,0.2,2.2,0.5,3.1C3.7,7.4,3.8,7.5,4,7.5C4.2,7.5,5,6.6,6.7,5C8.5,3.3,10,1.5,12,0.1C12.2,0,12.4,0,12.6,0
	c0.3,0,0.4,0.3,0.4,0.9c0,0.1,0,0.2,0,0.4s0,0.4,0,0.8c-2,2.3-4.4,5.1-7.7,8c-1.4,1.3-2,1.9-2.5,1.9c-0.1,0-0.3,0-0.5-0.1
	c-0.7-0.4-1.3-0.8-1.7-1.3C0.1,8.4,0,7,0,6.4z"/>
</svg>
