<?xml version="1.0" encoding="UTF-8"?>
<svg width="23px" height="23px" viewBox="0 0 23 23" version="1.1" xmlns="http://www.w3.org/2000/svg" xmlns:xlink="http://www.w3.org/1999/xlink">
    <!-- Generator: Sketch 49.1 (51147) - http://www.bohemiancoding.com/sketch -->
    <title>Slice 1</title>
    <desc>Created with Sketch.</desc>
    <defs>
        <polygon id="path-1" points="0.7651 0.1748 15.464 0.1748 15.464 14.9998 0.7651 14.9998"></polygon>
        <polygon id="path-3" points="0.0001 0.529 5.4161 0.529 5.4161 5.5359 0.0001 5.5359"></polygon>
        <polygon id="path-5" points="0 22.4712 22.464 22.4712 22.464 1.0002 0 1.0002"></polygon>
    </defs>
    <g id="Page-1" stroke="none" stroke-width="1" fill="none" fill-rule="evenodd">
        <g>
            <g id="Group-3" transform="translate(7.000000, 7.471200)">
                <mask id="mask-2" fill="white">
                    <use xlink:href="#path-1"></use>
                </mask>
                <g id="Clip-2"></g>
                <path d="M15.4641,14.9998 L10.6491,14.9998 L10.6491,7.2498 C10.6491,5.3028 9.9521,3.9728 8.2081,3.9728 C6.8801,3.9728 6.0861,4.8728 5.7371,5.7368 C5.6101,6.0468 5.5781,6.4738 5.5781,6.9098 L5.5781,14.9998 L0.7651,14.9998 C0.7651,14.9998 0.8261,1.8728 0.7651,0.5148 L5.5781,0.5148 L5.5781,2.5668 C6.2201,1.5768 7.3641,0.1748 9.9191,0.1748 C13.0861,0.1748 15.4641,2.2428 15.4641,6.6938 L15.4641,14.9998 Z" id="Fill-1" fill="#FFFFFF" mask="url(#mask-2)"></path>
            </g>
            <g id="Group-6" transform="translate(0.000000, 0.471200)">
                <mask id="mask-4" fill="white">
                    <use xlink:href="#path-3"></use>
                </mask>
                <g id="Clip-5"></g>
                <path d="M2.6911,5.5359 L2.6601,5.5359 C1.0451,5.5359 0.0001,4.4219 0.0001,3.0319 C0.0001,1.6119 1.0781,0.5289 2.7231,0.5289 C4.3711,0.5289 5.3861,1.6119 5.4161,3.0319 C5.4161,4.4219 4.3711,5.5359 2.6911,5.5359" id="Fill-4" fill="#FFFFFF" mask="url(#mask-4)"></path>
            </g>
            <mask id="mask-6" fill="white">
                <use xlink:href="#path-5"></use>
            </mask>
            <g id="Clip-8"></g>
            <polygon id="Fill-7" fill="#FFFFFF" mask="url(#mask-6)" points="0.283 22.4712 5.1 22.4712 5.1 7.9872 0.283 7.9872"></polygon>
        </g>
    </g>
</svg>