<svg version="1.1"
														 xmlns="http://www.w3.org/2000/svg" xmlns:xlink="http://www.w3.org/1999/xlink" xmlns:a="http://ns.adobe.com/AdobeSVGViewerExtensions/3.0/"
														 x="0px" y="0px" width="23.7px" height="22.3px" viewBox="0 0 23.7 22.3" style="enable-background:new 0 0 23.7 22.3;"
														 xml:space="preserve">
													<style type="text/css">
														.st0{fill:#CD171A;}
													</style>
													<defs>
													</defs>
													<path class="st0" d="M22.1,22.3H1.6c-0.9,0-1.6-0.7-1.6-1.6v-5.1c0-0.4,0.3-0.7,0.7-0.7c0.4,0,0.7,0.3,0.7,0.7v5.1
														c0,0,0,0.1,0.1,0.1h20.5c0.1,0,0.1,0,0.1-0.1v-5.1c0-0.4,0.3-0.7,0.7-0.7c0.4,0,0.7,0.3,0.7,0.7v5.1C23.7,21.6,23,22.3,22.1,22.3"/>
													<path class="st0" d="M11.9,15.2c-0.4,0-0.7-0.3-0.7-0.7V0.7c0-0.4,0.3-0.7,0.7-0.7c0.4,0,0.7,0.3,0.7,0.7v13.7
														C12.6,14.9,12.3,15.2,11.9,15.2"/>
													<path class="st0" d="M11.9,16.7c-0.2,0-0.4-0.1-0.5-0.2l-6.4-6.4C4.7,9.8,4.7,9.3,4.9,9S5.7,8.7,6,9l5.9,5.9L17.7,9
														c0.3-0.3,0.8-0.3,1.1,0s0.3,0.8,0,1.1l-6.4,6.4C12.3,16.6,12.1,16.7,11.9,16.7"/>
													</svg>