<svg version="1.1"
	 xmlns="http://www.w3.org/2000/svg" xmlns:xlink="http://www.w3.org/1999/xlink" xmlns:a="http://ns.adobe.com/AdobeSVGViewerExtensions/3.0/"
	 x="0px" y="0px" width="46px" height="46px" viewBox="0 0 46 46" style="enable-background:new 0 0 46 46;" xml:space="preserve">
<style type="text/css">
	.st0{fill:#CC1719;}
	.st1{fill:#FFFFFF;}
</style>
<defs>
</defs>
<circle class="st0" cx="23" cy="23" r="23"/>
<g>
	<path class="st1" d="M33,13.2h-1.6v0.8c0,0.8-0.6,1.4-1.4,1.4h-1.8c-0.8,0-1.4-0.6-1.4-1.4v-0.8h-7.4v0.8c0,0.8-0.6,1.4-1.4,1.4
		h-1.8c-0.8,0-1.4-0.6-1.4-1.4v-0.8H13c-0.8,0-1.5,0.6-1.5,1.4v18.9c0,0.8,0.7,1.4,1.5,1.4H33c0.8,0,1.5-0.6,1.5-1.4V14.6
		C34.5,13.8,33.8,13.2,33,13.2z M32.8,33.4H13.2V18h19.6V33.4z"/>
	<path class="st1" d="M16.1,14.8h1.8c0.4,0,0.7-0.3,0.7-0.7v-2.3c0-0.4-0.3-0.7-0.7-0.7h-1.8c-0.4,0-0.7,0.3-0.7,0.7v2.3
		C15.3,14.5,15.7,14.8,16.1,14.8z"/>
	<path class="st1" d="M28.1,14.8h1.8c0.4,0,0.7-0.3,0.7-0.7v-2.3c0-0.4-0.3-0.7-0.7-0.7h-1.8c-0.4,0-0.7,0.3-0.7,0.7v2.3
		C27.4,14.5,27.7,14.8,28.1,14.8z"/>
	<path class="st1" d="M21,29.6c0.2,0.2,0.4,0.3,0.7,0.3s0.5-0.1,0.7-0.3l6.3-6.3c0.2-0.2,0.3-0.4,0.3-0.7c0-0.3-0.1-0.5-0.3-0.7
		l-0.8-0.8c-0.2-0.2-0.4-0.3-0.7-0.3c-0.3,0-0.5,0.1-0.7,0.3L21.6,26l-2.1-2.1c-0.2-0.2-0.4-0.3-0.7-0.3c-0.3,0-0.5,0.1-0.7,0.3
		l-0.8,0.8c-0.4,0.4-0.4,1,0,1.3L21,29.6z"/>
</g>
</svg>
