<!-- Generator: Adobe Illustrator 22.1.0, SVG Export Plug-In  -->
<svg version="1.1"
	 xmlns="http://www.w3.org/2000/svg" xmlns:xlink="http://www.w3.org/1999/xlink" xmlns:a="http://ns.adobe.com/AdobeSVGViewerExtensions/3.0/"
	 x="0px" y="0px" width="50px" height="60px" viewBox="0 0 50 60" style="enable-background:new 0 0 50 60;" xml:space="preserve">
<style type="text/css">
	.st0{fill:#1a9fdf;}
</style>
<defs>
</defs>
<g>
	<g>
		<g>
			<path class="st0" d="M25,22.2l-9-5.6V7.4l9-5.6l9,5.6v9.1L25,22.2z M18,15.4l7,4.4l7-4.4V8.6l-7-4.4l-7,4.4V15.4z"/>
		</g>
		<g>
			<polygon class="st0" points="25,14.2 16.5,8.8 17.5,7.2 25,11.8 32.5,7.2 33.5,8.8 			"/>
		</g>
		<g>
			<rect x="24" y="13" class="st0" width="2" height="8"/>
		</g>
	</g>
	<g>
		<rect x="34" y="42" class="st0" width="2" height="18"/>
	</g>
	<g>
		<rect x="24" y="32" class="st0" width="2" height="2"/>
	</g>
	<g>
		<rect x="20" y="32" class="st0" width="2" height="2"/>
	</g>
	<g>
		<rect x="28" y="32" class="st0" width="2" height="2"/>
	</g>
	<g>
		<path class="st0" d="M28,60h-2v-8c0-0.6-0.4-1-1-1c-0.6,0-1,0.4-1,1v8h-2v-8c0-1.7,1.3-3,3-3c1.7,0,3,1.3,3,3V60z"/>
	</g>
	<g>
		<path class="st0" d="M16,60h-2V42.6C5.5,38.5,0,29.7,0,20C0,11.3,3.5,4.6,10.5,0.2L10.7,0H14v2h-2.7C5,6.1,2,12,2,20
			c0,9.1,5.3,17.4,13.4,21.1l0.6,0.3V60z"/>
	</g>
	<g>
		<path class="st0" d="M25,45v-2c12.7,0,23-10.3,23-23c0-8-3-13.9-9.3-18H38v17.5l-13,8.7l-13-8.7V4h2v14.5l11,7.3l11-7.3V0h3.3
			l0.2,0.2C46.5,4.6,50,11.3,50,20C50,33.8,38.8,45,25,45z"/>
	</g>
	<g>
		<path class="st0" d="M25,41C13.4,41,4,31.6,4,20h2c0,10.5,8.5,19,19,19c10.5,0,19-8.5,19-19c0-6-2.8-11.6-7.6-15.2l1.2-1.6
			C42.9,7.2,46,13.3,46,20C46,31.6,36.6,41,25,41z"/>
	</g>
</g>
</svg>
