<!-- Generator: Adobe Illustrator 22.1.0, SVG Export Plug-In  -->
<svg version="1.1"
	 xmlns="http://www.w3.org/2000/svg" xmlns:xlink="http://www.w3.org/1999/xlink" xmlns:a="http://ns.adobe.com/AdobeSVGViewerExtensions/3.0/"
	 x="0px" y="0px" width="19.7px" height="19.7px" viewBox="0 0 19.7 19.7" style="enable-background:new 0 0 19.7 19.7;"
	 xml:space="preserve">
<style type="text/css">
	.st0{fill:#FFFFFF;}
</style>
<defs>
</defs>
<path class="st0" d="M9.9,1.1C5,1.1,1.1,5,1.1,9.9c0,4.8,3.9,8.8,8.8,8.8s8.8-3.9,8.8-8.8C18.6,5,14.7,1.1,9.9,1.1 M9.9,19.7
	C4.4,19.7,0,15.3,0,9.9C0,4.4,4.4,0,9.9,0s9.9,4.4,9.9,9.9C19.7,15.3,15.3,19.7,9.9,19.7"/>
<path class="st0" d="M9.7,4.8v4.8v0.7C9.8,10.1,9.9,10,10,9.8c-1.1,0.8-2.1,1.6-3.2,2.3c-0.3,0.2-0.4,0.5-0.2,0.8
	c0.2,0.3,0.6,0.4,0.8,0.2c1.1-0.8,2.1-1.5,3.2-2.3c0.3-0.2,0.3-0.4,0.3-0.7V9.3V6.6V4.8C10.9,4,9.7,4,9.7,4.8"/>
</svg>
