<!-- Generator: Adobe Illustrator 22.1.0, SVG Export Plug-In  -->
<svg version="1.1"
	 xmlns="http://www.w3.org/2000/svg" xmlns:xlink="http://www.w3.org/1999/xlink" xmlns:a="http://ns.adobe.com/AdobeSVGViewerExtensions/3.0/"
	 x="0px" y="0px" width="19.3px" height="15.7px" viewBox="0 0 19.3 15.7" style="enable-background:new 0 0 19.3 15.7;"
	 xml:space="preserve">
<defs>
</defs>
<path d="M13.4,0c-2.2,0-4,1.8-4,4c0,0.3,0,0.6,0.1,0.9C6.2,4.7,3.3,3.1,1.3,0.7C1,1.3,0.8,2,0.8,2.7c0,1.4,0.7,2.6,1.8,3.3
	C1.9,6,1.3,5.8,0.8,5.5v0.1c0,1.9,1.4,3.5,3.2,3.9c-0.3,0.1-0.7,0.1-1,0.1c-0.3,0-0.5,0-0.7-0.1c0.5,1.6,2,2.7,3.7,2.8
	C4.5,13.4,2.8,14,0.9,14C0.6,14,0.3,14,0,14c1.8,1.1,3.8,1.8,6.1,1.8c7.3,0,11.3-6.1,11.3-11.3c0-0.2,0-0.3,0-0.5
	c0.8-0.6,1.4-1.3,2-2.1c-0.7,0.3-1.5,0.5-2.3,0.6c0.8-0.5,1.4-1.3,1.7-2.2c-0.8,0.5-1.6,0.8-2.5,1C15.6,0.5,14.5,0,13.4,0"/>
</svg>
