<?xml version="1.0" encoding="UTF-8"?>
<svg width="25px" height="24px" viewBox="0 0 25 24" version="1.1" xmlns="http://www.w3.org/2000/svg" xmlns:xlink="http://www.w3.org/1999/xlink">
    <!-- Generator: Sketch 49.1 (51147) - http://www.bohemiancoding.com/sketch -->
    <title>Slice 1</title>
    <desc>Created with Sketch.</desc>
    <defs></defs>
    <g id="Page-1" stroke="none" stroke-width="1" fill="none" fill-rule="evenodd">
        <g>
            <path d="M12.1089,23.2773 C18.3319,23.2773 23.3769,18.2303 23.3769,12.0073 C23.3769,5.7853 18.3319,0.7383 12.1089,0.7383 C5.8859,0.7383 0.8409,5.7853 0.8409,12.0073 C0.8409,18.2303 5.8859,23.2773 12.1089,23.2773" id="Fill-1" fill="#009FE3"></path>
            <path d="M12.2369,23.9502 C11.1409,23.9502 10.0479,23.8002 8.9879,23.5042 C6.4979,22.8092 4.2539,21.2942 2.6689,19.2382 C1.0309,17.1132 0.1649,14.5682 0.1649,11.8782 C0.1649,8.7302 1.3709,5.7502 3.5599,3.4872 L3.5729,3.4732 L3.5899,3.4572 C5.8529,1.2682 8.8329,0.0632 11.9809,0.0632 C18.6369,0.0632 24.0529,5.4782 24.0529,12.1342 C24.0529,12.5232 24.0329,12.9192 23.9949,13.3102 C23.7339,16.0082 22.5489,18.5712 20.6579,20.5262 L20.6459,20.5392 L20.6289,20.5552 C18.3659,22.7442 15.3849,23.9502 12.2369,23.9502 M11.9809,1.4472 C9.1939,1.4472 6.5559,2.5142 4.5519,4.4532 C2.6169,6.4532 1.5499,9.0912 1.5499,11.8782 C1.5499,16.6552 4.7619,20.8872 9.3599,22.1702 C10.2989,22.4322 11.2669,22.5652 12.2369,22.5652 C15.0239,22.5652 17.6629,21.4982 19.6659,19.5602 C21.3369,17.8322 22.3859,15.5642 22.6169,13.1762 C22.6509,12.8292 22.6679,12.4792 22.6679,12.1342 C22.6679,6.2422 17.8739,1.4472 11.9809,1.4472" id="Fill-3" fill="#FFFFFF"></path>
            <path d="M9.9146,17.8379 C9.1726,18.4019 8.5656,18.1019 8.5656,17.1699 L8.5656,6.8569 C8.5656,5.9239 9.1816,5.6109 9.9346,6.1619 L16.8846,10.8739 C17.9076,11.6299 17.6456,12.3379 16.9036,12.9019 L9.9146,17.8379 Z" id="Fill-5" fill="#FFFFFF"></path>
        </g>
    </g>
</svg>