<?xml version="1.0" encoding="UTF-8"?>
<svg width="22px" height="16px" viewBox="0 0 22 16" version="1.1" xmlns="http://www.w3.org/2000/svg" xmlns:xlink="http://www.w3.org/1999/xlink">
    <g id="Page-1" stroke="none" stroke-width="1" fill="none" fill-rule="evenodd">
        <g>
            <g id="Group-5"></g>
            <path d="M21.4914,2.8684 C21.2424,1.9294 20.5074,1.1904 19.5744,0.9394 C17.8834,0.4834 11.1034,0.4834 11.1034,0.4834 C11.1034,0.4834 4.3234,0.4834 2.6334,0.9394 C1.7004,1.1904 0.9654,1.9294 0.7164,2.8684 C0.2634,4.5704 0.2634,8.1204 0.2634,8.1204 C0.2634,8.1204 0.2634,11.6714 0.7164,13.3734 C0.9654,14.3124 1.7004,15.0514 2.6334,15.3024 C4.3234,15.7584 11.1034,15.7584 11.1034,15.7584 C11.1034,15.7584 17.8834,15.7584 19.5744,15.3024 C20.5074,15.0514 21.2424,14.3124 21.4914,13.3734 C21.9444,11.6714 21.9444,8.1204 21.9444,8.1204 C21.9444,8.1204 21.9444,4.5704 21.4914,2.8684 Z M2.1104,14.0344 L20.0964,14.0344 L20.0964,1.8384 L2.1104,1.8384 L2.1104,14.0344 Z" id="Fill-3" fill="#000000"></path>
            <path d="M2.111,14.034 L20.097,14.034 L20.097,1.838 L2.111,1.838 L2.111,14.034 Z M8.887,4.897 L14.553,8.121 L8.887,11.344 L8.887,4.897 Z" id="Fill-6" fill="#000000"></path>
        </g>
    </g>
</svg>